<svg width="26" height="24" viewBox="0 0 26 24" fill="none" xmlns="http://www.w3.org/2000/svg">
<path d="M24.6376 10.29C24.6376 10.29 24.6356 10.288 24.6336 10.286L13.8396 0.936996C13.5646 0.674996 13.2046 0.526996 12.8016 0.520996C12.4206 0.526996 12.0606 0.674996 11.8136 0.911996L0.987555 10.29C0.568555 10.658 0.441555 11.245 0.680555 11.759C0.891555 12.215 1.37955 12.479 1.88155 12.479H3.81255V21.729C3.81255 22.695 4.59655 23.479 5.56255 23.479H9.81255C10.3646 23.479 10.8126 23.031 10.8126 22.479V16.309C10.8126 16.126 10.9606 15.979 11.1426 15.979H14.4826C14.6646 15.979 14.8126 16.126 14.8126 16.309V22.479C14.8126 23.031 15.2606 23.479 15.8126 23.479H20.0626C21.0296 23.479 21.8126 22.695 21.8126 21.729V12.479H23.7436C24.2456 12.479 24.7336 12.215 24.9446 11.759C25.1836 11.245 25.0566 10.658 24.6376 10.29Z" fill="#1B74E4"/>
</svg>
