<svg width="864" height="196" viewBox="0 0 864 196" fill="none" xmlns="http://www.w3.org/2000/svg">
<g clip-path="url(#clip0_360_2485)">
<mask id="mask0_360_2485" style="mask-type:luminance" maskUnits="userSpaceOnUse" x="436" y="66" width="25" height="25">
<path d="M448.34 90.6717C455.011 90.6717 460.42 85.2633 460.42 78.5917C460.42 71.9201 455.011 66.5117 448.34 66.5117C441.668 66.5117 436.26 71.9201 436.26 78.5917C436.26 85.2633 441.668 90.6717 448.34 90.6717Z" fill="white"/>
</mask>
<g mask="url(#mask0_360_2485)">
<path d="M448.34 90.6717C455.011 90.6717 460.42 85.2633 460.42 78.5917C460.42 71.9201 455.011 66.5117 448.34 66.5117C441.668 66.5117 436.26 71.9201 436.26 78.5917C436.26 85.2633 441.668 90.6717 448.34 90.6717Z" fill="#1876F2"/>
<path d="M437.941 80.0523C446.07 80.0523 452.661 73.4619 452.661 65.3323C452.661 57.2027 446.07 50.6123 437.941 50.6123C429.811 50.6123 423.221 57.2027 423.221 65.3323C423.221 73.4619 429.811 80.0523 437.941 80.0523Z" fill="#A4A7AB"/>
<path d="M464.681 78.772C472.811 78.772 479.401 72.1817 479.401 64.052C479.401 55.9224 472.811 49.332 464.681 49.332C456.551 49.332 449.961 55.9224 449.961 64.052C449.961 72.1817 456.551 78.772 464.681 78.772Z" fill="#A4A7AB"/>
</g>
<path d="M403.13 42.3409H414.43C415.448 42.3409 416.425 42.7454 417.145 43.4656C417.865 44.1857 418.27 45.1624 418.27 46.1809V61.1809H399.27V46.1809C399.27 45.6749 399.37 45.1739 399.564 44.7067C399.758 44.2395 400.043 43.8153 400.401 43.4585C400.76 43.1016 401.186 42.8192 401.654 42.6274C402.122 42.4356 402.624 42.3382 403.13 42.3409Z" fill="black"/>
<path d="M409.629 51.6816H407.929C403.152 51.6816 399.279 55.5544 399.279 60.3316V67.7816C399.279 72.5589 403.152 76.4316 407.929 76.4316H409.629C414.407 76.4316 418.279 72.5589 418.279 67.7816V60.3316C418.279 55.5544 414.407 51.6816 409.629 51.6816Z" fill="#90C3FF"/>
<path d="M406.229 51.6816H434.529C436.386 51.6816 438.166 52.4191 439.479 53.7319C440.792 55.0447 441.529 56.8251 441.529 58.6816V96.0416H399.279V58.6316C399.292 56.7924 400.029 55.0323 401.329 53.7317C402.63 52.4312 404.39 51.6947 406.229 51.6816Z" fill="#A4A7AB"/>
<path d="M444.39 93.0615H449.45C456.375 93.0642 463.016 95.8173 467.913 100.715C472.809 105.614 475.56 112.256 475.56 119.182V124.432H418.27V119.182C418.27 112.254 421.021 105.61 425.92 100.712C430.818 95.8134 437.462 93.0615 444.39 93.0615Z" fill="#64676B"/>
<path d="M442.079 67.5316C446.249 67.5316 449.629 64.1514 449.629 59.9816C449.629 55.8119 446.249 52.4316 442.079 52.4316C437.91 52.4316 434.529 55.8119 434.529 59.9816C434.529 64.1514 437.91 67.5316 442.079 67.5316Z" fill="#A4A7AB"/>
</g>
<path d="M39.9083 152.548C38.9007 152.548 38.0033 152.375 37.2162 152.029C36.4335 151.678 35.815 151.197 35.3607 150.585C34.9109 149.969 34.6792 149.258 34.6657 148.453H37.6075C37.6255 148.79 37.7357 149.087 37.9381 149.343C38.145 149.595 38.4194 149.791 38.7613 149.93C39.1031 150.07 39.4877 150.14 39.915 150.14C40.3604 150.14 40.7539 150.061 41.0958 149.903C41.4376 149.746 41.7053 149.528 41.8987 149.249C42.0921 148.97 42.1888 148.648 42.1888 148.284C42.1888 147.915 42.0854 147.589 41.8785 147.306C41.676 147.018 41.3837 146.793 41.0013 146.631C40.6235 146.469 40.1737 146.388 39.6519 146.388H38.3632V144.243H39.6519C40.0927 144.243 40.4818 144.166 40.8192 144.013C41.161 143.86 41.4264 143.649 41.6153 143.379C41.8042 143.105 41.8987 142.785 41.8987 142.421C41.8987 142.074 41.8155 141.771 41.6491 141.51C41.4871 141.245 41.2577 141.038 40.9608 140.889C40.6685 140.741 40.3266 140.667 39.9353 140.667C39.5394 140.667 39.1773 140.739 38.849 140.882C38.5206 141.022 38.2575 141.222 38.0596 141.483C37.8617 141.744 37.7559 142.05 37.7425 142.401H34.9424C34.9559 141.604 35.183 140.903 35.6238 140.295C36.0647 139.688 36.6584 139.214 37.4051 138.872C38.1563 138.525 39.0042 138.352 39.9488 138.352C40.9024 138.352 41.7368 138.525 42.452 138.872C43.1672 139.218 43.7227 139.686 44.1185 140.275C44.5189 140.86 44.7168 141.517 44.7123 142.245C44.7168 143.019 44.4761 143.665 43.9903 144.182C43.509 144.699 42.8815 145.027 42.1079 145.167V145.275C43.1244 145.405 43.8981 145.758 44.4289 146.334C44.9642 146.905 45.2296 147.621 45.2251 148.48C45.2296 149.267 45.0024 149.966 44.5436 150.578C44.0893 151.19 43.4618 151.671 42.6611 152.022C41.8605 152.373 40.9429 152.548 39.9083 152.548ZM46.5424 155.396V150.079H47.3386C47.568 149.935 47.7524 149.705 47.8919 149.391C48.0358 149.076 48.1528 148.705 48.2427 148.277C48.3372 147.85 48.4092 147.389 48.4586 146.894C48.5126 146.395 48.5598 145.891 48.6003 145.383L48.8702 141.996H56.8184V150.079H58.4242V155.396H55.6848V152.359H49.3493V155.396H46.5424ZM50.1994 150.079H54.106V144.209H51.3127L51.2047 145.383C51.1283 146.489 51.0181 147.429 50.8741 148.203C50.7302 148.972 50.5053 149.598 50.1994 150.079ZM64.8222 152.562C63.7561 152.562 62.8385 152.346 62.0693 151.914C61.3047 151.478 60.7154 150.862 60.3016 150.065C59.8878 149.265 59.6808 148.318 59.6808 147.225C59.6808 146.159 59.8878 145.223 60.3016 144.418C60.7154 143.613 61.2979 142.985 62.0491 142.536C62.8048 142.086 63.6909 141.861 64.7075 141.861C65.3912 141.861 66.0277 141.971 66.6169 142.191C67.2107 142.407 67.728 142.733 68.1688 143.17C68.6141 143.606 68.9604 144.155 69.2078 144.816C69.4552 145.473 69.5789 146.242 69.5789 147.124V147.913H60.8279V146.132H66.8733C66.8733 145.718 66.7834 145.351 66.6034 145.032C66.4235 144.713 66.1739 144.463 65.8545 144.283C65.5396 144.099 65.173 144.006 64.7547 144.006C64.3184 144.006 63.9316 144.108 63.5942 144.31C63.2613 144.508 63.0004 144.776 62.8115 145.113C62.6226 145.446 62.5259 145.817 62.5214 146.226V147.92C62.5214 148.433 62.6159 148.876 62.8048 149.249C62.9982 149.622 63.2703 149.91 63.6212 150.113C63.972 150.315 64.3881 150.416 64.8694 150.416C65.1888 150.416 65.4811 150.371 65.7465 150.281C66.0119 150.191 66.2391 150.056 66.428 149.876C66.6169 149.696 66.7609 149.476 66.8598 149.215L69.5182 149.391C69.3833 150.029 69.1066 150.587 68.6883 151.064C68.2745 151.536 67.7392 151.905 67.0825 152.17C66.4302 152.431 65.6768 152.562 64.8222 152.562ZM76.1372 152.562C75.0756 152.562 74.1625 152.337 73.3978 151.887C72.6376 151.433 72.0529 150.803 71.6436 149.998C71.2387 149.193 71.0363 148.266 71.0363 147.218C71.0363 146.156 71.241 145.225 71.6503 144.425C72.0641 143.62 72.6511 142.992 73.4113 142.542C74.1715 142.088 75.0756 141.861 76.1237 141.861C77.0278 141.861 77.8195 142.025 78.4987 142.353C79.1779 142.682 79.7154 143.143 80.1112 143.737C80.5071 144.33 80.7252 145.027 80.7657 145.828H78.0534C77.9769 145.311 77.7745 144.895 77.4461 144.58C77.1222 144.261 76.6972 144.101 76.1709 144.101C75.7256 144.101 75.3365 144.222 75.0036 144.465C74.6753 144.704 74.4189 145.052 74.2345 145.511C74.05 145.97 73.9578 146.525 73.9578 147.178C73.9578 147.839 74.0478 148.401 74.2277 148.864C74.4121 149.328 74.6708 149.681 75.0036 149.924C75.3365 150.167 75.7256 150.288 76.1709 150.288C76.4993 150.288 76.7939 150.221 77.0548 150.086C77.3202 149.951 77.5383 149.755 77.7093 149.499C77.8847 149.238 77.9994 148.925 78.0534 148.561H80.7657C80.7207 149.352 80.5048 150.05 80.118 150.652C79.7356 151.251 79.2071 151.718 78.5324 152.056C77.8577 152.393 77.0593 152.562 76.1372 152.562ZM84.4075 145.18H87.5044C88.8764 145.18 89.9469 145.509 90.7161 146.165C91.4853 146.818 91.8699 147.69 91.8699 148.783C91.8699 149.494 91.6967 150.119 91.3503 150.659C91.004 151.194 90.5047 151.613 89.8525 151.914C89.2002 152.211 88.4176 152.359 87.5044 152.359H82.606V141.996H85.3521V150.099H87.5044C87.9857 150.099 88.3816 149.978 88.6919 149.735C89.0023 149.492 89.1597 149.181 89.1642 148.804C89.1597 148.403 89.0023 148.077 88.6919 147.825C88.3816 147.569 87.9857 147.441 87.5044 147.441H84.4075V145.18ZM106.79 138.19L107.667 140.066C107.374 140.309 107.05 140.489 106.695 140.606C106.34 140.718 105.915 140.792 105.42 140.828C104.93 140.864 104.331 140.889 103.625 140.903C102.824 140.912 102.172 141.04 101.668 141.287C101.165 141.535 100.782 141.924 100.521 142.455C100.261 142.981 100.09 143.669 100.009 144.519H100.11C100.42 143.885 100.857 143.395 101.419 143.048C101.986 142.702 102.685 142.529 103.517 142.529C104.399 142.529 105.17 142.722 105.831 143.109C106.497 143.496 107.014 144.051 107.383 144.776C107.752 145.5 107.937 146.368 107.937 147.38C107.937 148.433 107.73 149.348 107.316 150.126C106.906 150.9 106.324 151.5 105.568 151.928C104.813 152.35 103.913 152.562 102.869 152.562C101.821 152.562 100.917 152.341 100.157 151.901C99.4014 151.46 98.8166 150.81 98.4028 149.951C97.9935 149.092 97.7888 148.034 97.7888 146.779V145.929C97.7888 143.433 98.2746 141.582 99.2462 140.376C100.218 139.171 101.646 138.559 103.531 138.541C104.043 138.532 104.507 138.53 104.921 138.534C105.334 138.539 105.696 138.519 106.007 138.474C106.322 138.429 106.583 138.334 106.79 138.19ZM102.883 150.335C103.324 150.335 103.702 150.221 104.016 149.991C104.336 149.762 104.581 149.433 104.752 149.006C104.927 148.579 105.015 148.068 105.015 147.474C105.015 146.885 104.927 146.386 104.752 145.977C104.581 145.563 104.336 145.248 104.016 145.032C103.697 144.816 103.315 144.708 102.869 144.708C102.537 144.708 102.237 144.769 101.972 144.89C101.707 145.012 101.479 145.192 101.291 145.43C101.106 145.664 100.962 145.954 100.859 146.3C100.76 146.642 100.71 147.034 100.71 147.474C100.71 148.361 100.901 149.06 101.284 149.573C101.671 150.081 102.204 150.335 102.883 150.335ZM111.619 156.246C111.254 156.246 110.913 156.217 110.593 156.158C110.278 156.104 110.017 156.034 109.811 155.949L110.458 153.803C110.796 153.907 111.099 153.963 111.369 153.972C111.644 153.981 111.88 153.918 112.078 153.783C112.28 153.648 112.444 153.419 112.57 153.095L112.739 152.656L109.021 141.996H112.044L114.189 149.607H114.297L116.463 141.996H119.506L115.478 153.479C115.285 154.037 115.022 154.523 114.689 154.937C114.36 155.355 113.944 155.677 113.441 155.902C112.937 156.131 112.329 156.246 111.619 156.246ZM119.332 155.396V150.079H120.129C120.358 149.935 120.542 149.705 120.682 149.391C120.826 149.076 120.943 148.705 121.033 148.277C121.127 147.85 121.199 147.389 121.249 146.894C121.303 146.395 121.35 145.891 121.39 145.383L121.66 141.996H129.608V150.079H131.214V155.396H128.475V152.359H122.139V155.396H119.332ZM122.989 150.079H126.896V144.209H124.103L123.995 145.383C123.918 146.489 123.808 147.429 123.664 148.203C123.52 148.972 123.295 149.598 122.989 150.079ZM134.664 156.246C134.299 156.246 133.958 156.217 133.638 156.158C133.323 156.104 133.062 156.034 132.855 155.949L133.503 153.803C133.841 153.907 134.144 153.963 134.414 153.972C134.688 153.981 134.925 153.918 135.123 153.783C135.325 153.648 135.489 153.419 135.615 153.095L135.784 152.656L132.066 141.996H135.089L137.234 149.607H137.342L139.508 141.996H142.551L138.523 153.479C138.33 154.037 138.067 154.523 137.734 154.937C137.405 155.355 136.989 155.677 136.485 155.902C135.982 156.131 135.374 156.246 134.664 156.246ZM143.482 144.256V141.996H152.874V144.256H149.534V152.359H146.795V144.256H143.482ZM159.014 152.359V141.996H168.076V152.359H165.33V144.256H161.727V152.359H159.014ZM175.052 152.562C174.004 152.562 173.098 152.339 172.333 151.894C171.573 151.444 170.986 150.819 170.572 150.018C170.158 149.213 169.951 148.28 169.951 147.218C169.951 146.147 170.158 145.212 170.572 144.411C170.986 143.606 171.573 142.981 172.333 142.536C173.098 142.086 174.004 141.861 175.052 141.861C176.1 141.861 177.004 142.086 177.765 142.536C178.529 142.981 179.118 143.606 179.532 144.411C179.946 145.212 180.153 146.147 180.153 147.218C180.153 148.28 179.946 149.213 179.532 150.018C179.118 150.819 178.529 151.444 177.765 151.894C177.004 152.339 176.1 152.562 175.052 152.562ZM175.066 150.335C175.542 150.335 175.941 150.2 176.26 149.93C176.579 149.656 176.82 149.283 176.982 148.81C177.148 148.338 177.232 147.801 177.232 147.198C177.232 146.595 177.148 146.058 176.982 145.585C176.82 145.113 176.579 144.74 176.26 144.465C175.941 144.191 175.542 144.054 175.066 144.054C174.584 144.054 174.18 144.191 173.851 144.465C173.527 144.74 173.282 145.113 173.116 145.585C172.954 146.058 172.873 146.595 172.873 147.198C172.873 147.801 172.954 148.338 173.116 148.81C173.282 149.283 173.527 149.656 173.851 149.93C174.18 150.2 174.584 150.335 175.066 150.335ZM182.022 152.359V141.996H184.896V146.017H185.706L188.526 141.996H191.9L188.236 147.137L191.94 152.359H188.526L185.969 148.682H184.896V152.359H182.022ZM196.11 152.555C195.449 152.555 194.86 152.44 194.342 152.211C193.825 151.977 193.416 151.633 193.114 151.179C192.817 150.72 192.669 150.149 192.669 149.465C192.669 148.889 192.775 148.406 192.986 148.014C193.198 147.623 193.485 147.308 193.85 147.07C194.214 146.831 194.628 146.651 195.091 146.53C195.559 146.408 196.049 146.323 196.562 146.273C197.165 146.21 197.651 146.152 198.02 146.098C198.388 146.04 198.656 145.954 198.822 145.842C198.989 145.729 199.072 145.563 199.072 145.342V145.302C199.072 144.875 198.937 144.544 198.667 144.31C198.402 144.076 198.024 143.959 197.534 143.959C197.016 143.959 196.605 144.074 196.299 144.303C195.993 144.528 195.791 144.812 195.692 145.153L193.033 144.938C193.168 144.308 193.434 143.763 193.83 143.305C194.225 142.841 194.736 142.486 195.361 142.239C195.991 141.987 196.72 141.861 197.547 141.861C198.123 141.861 198.674 141.928 199.2 142.063C199.731 142.198 200.201 142.407 200.61 142.691C201.024 142.974 201.35 143.338 201.589 143.784C201.827 144.225 201.946 144.753 201.946 145.369V152.359H199.221V150.922H199.14C198.973 151.246 198.75 151.532 198.472 151.779C198.193 152.022 197.858 152.213 197.466 152.353C197.075 152.488 196.623 152.555 196.11 152.555ZM196.933 150.571C197.356 150.571 197.729 150.488 198.053 150.322C198.377 150.151 198.631 149.921 198.816 149.634C199 149.346 199.092 149.02 199.092 148.655V147.555C199.002 147.614 198.879 147.668 198.721 147.717C198.568 147.762 198.395 147.805 198.202 147.846C198.008 147.882 197.815 147.915 197.621 147.947C197.428 147.974 197.253 147.998 197.095 148.021C196.758 148.07 196.463 148.149 196.211 148.257C195.959 148.365 195.764 148.511 195.624 148.696C195.485 148.876 195.415 149.1 195.415 149.37C195.415 149.762 195.557 150.061 195.84 150.268C196.128 150.47 196.492 150.571 196.933 150.571ZM203.643 149.424H206.43C206.443 149.766 206.596 150.036 206.889 150.234C207.181 150.432 207.559 150.531 208.022 150.531C208.49 150.531 208.884 150.423 209.203 150.207C209.522 149.987 209.682 149.672 209.682 149.262C209.682 149.011 209.619 148.792 209.493 148.608C209.367 148.419 209.192 148.271 208.967 148.163C208.742 148.055 208.481 148.001 208.184 148.001H206.693V146.118H208.184C208.629 146.118 208.971 146.015 209.21 145.808C209.453 145.601 209.574 145.342 209.574 145.032C209.574 144.681 209.448 144.4 209.196 144.189C208.949 143.973 208.614 143.865 208.191 143.865C207.764 143.865 207.408 143.961 207.125 144.155C206.846 144.344 206.702 144.591 206.693 144.897H203.92C203.929 144.276 204.116 143.739 204.48 143.284C204.849 142.83 205.344 142.479 205.964 142.232C206.59 141.984 207.289 141.861 208.063 141.861C208.908 141.861 209.637 141.98 210.249 142.218C210.865 142.452 211.337 142.787 211.666 143.224C211.999 143.66 212.165 144.18 212.165 144.782C212.165 145.331 211.985 145.79 211.625 146.159C211.265 146.528 210.762 146.791 210.114 146.948V147.056C210.541 147.083 210.928 147.198 211.274 147.4C211.621 147.603 211.897 147.882 212.104 148.237C212.311 148.588 212.415 149.004 212.415 149.485C212.415 150.128 212.226 150.679 211.848 151.138C211.474 151.597 210.957 151.95 210.296 152.197C209.639 152.44 208.886 152.562 208.036 152.562C207.208 152.562 206.466 152.443 205.809 152.204C205.157 151.961 204.637 151.606 204.251 151.138C203.868 150.67 203.666 150.099 203.643 149.424ZM217.133 152.555C216.471 152.555 215.882 152.44 215.365 152.211C214.848 151.977 214.438 151.633 214.137 151.179C213.84 150.72 213.691 150.149 213.691 149.465C213.691 148.889 213.797 148.406 214.009 148.014C214.22 147.623 214.508 147.308 214.872 147.07C215.237 146.831 215.65 146.651 216.114 146.53C216.582 146.408 217.072 146.323 217.585 146.273C218.187 146.21 218.673 146.152 219.042 146.098C219.411 146.04 219.678 145.954 219.845 145.842C220.011 145.729 220.095 145.563 220.095 145.342V145.302C220.095 144.875 219.96 144.544 219.69 144.31C219.424 144.076 219.046 143.959 218.556 143.959C218.039 143.959 217.627 144.074 217.321 144.303C217.016 144.528 216.813 144.812 216.714 145.153L214.056 144.938C214.191 144.308 214.456 143.763 214.852 143.305C215.248 142.841 215.758 142.486 216.384 142.239C217.013 141.987 217.742 141.861 218.57 141.861C219.145 141.861 219.696 141.928 220.223 142.063C220.754 142.198 221.224 142.407 221.633 142.691C222.047 142.974 222.373 143.338 222.611 143.784C222.85 144.225 222.969 144.753 222.969 145.369V152.359H220.243V150.922H220.162C219.996 151.246 219.773 151.532 219.494 151.779C219.215 152.022 218.88 152.213 218.489 152.353C218.097 152.488 217.645 152.555 217.133 152.555ZM217.956 150.571C218.379 150.571 218.752 150.488 219.076 150.322C219.4 150.151 219.654 149.921 219.838 149.634C220.023 149.346 220.115 149.02 220.115 148.655V147.555C220.025 147.614 219.901 147.668 219.744 147.717C219.591 147.762 219.418 147.805 219.224 147.846C219.031 147.882 218.837 147.915 218.644 147.947C218.45 147.974 218.275 147.998 218.118 148.021C217.78 148.07 217.486 148.149 217.234 148.257C216.982 148.365 216.786 148.511 216.647 148.696C216.507 148.876 216.438 149.1 216.438 149.37C216.438 149.762 216.579 150.061 216.863 150.268C217.151 150.47 217.515 150.571 217.956 150.571ZM232.411 146.031V148.291H227V146.031H232.411ZM227.945 141.996V152.359H225.199V141.996H227.945ZM234.213 141.996V152.359H231.487V141.996H234.213ZM238.244 145.18H241.341C242.713 145.18 243.784 145.509 244.553 146.165C245.322 146.818 245.707 147.69 245.707 148.783C245.707 149.494 245.534 150.119 245.187 150.659C244.841 151.194 244.342 151.613 243.689 151.914C243.037 152.211 242.254 152.359 241.341 152.359H236.443V141.996H239.189V150.099H241.341C241.823 150.099 242.218 149.978 242.529 149.735C242.839 149.492 242.997 149.181 243.001 148.804C242.997 148.403 242.839 148.077 242.529 147.825C242.218 147.569 241.823 147.441 241.341 147.441H238.244V145.18ZM246.82 152.359V141.996H249.694V152.359H246.82ZM255.856 149.424H258.643C258.656 149.766 258.809 150.036 259.102 150.234C259.394 150.432 259.772 150.531 260.235 150.531C260.703 150.531 261.096 150.423 261.416 150.207C261.735 149.987 261.895 149.672 261.895 149.262C261.895 149.011 261.832 148.792 261.706 148.608C261.58 148.419 261.405 148.271 261.18 148.163C260.955 148.055 260.694 148.001 260.397 148.001H258.906V146.118H260.397C260.842 146.118 261.184 146.015 261.423 145.808C261.665 145.601 261.787 145.342 261.787 145.032C261.787 144.681 261.661 144.4 261.409 144.189C261.162 143.973 260.827 143.865 260.404 143.865C259.976 143.865 259.621 143.961 259.338 144.155C259.059 144.344 258.915 144.591 258.906 144.897H256.133C256.142 144.276 256.328 143.739 256.693 143.284C257.062 142.83 257.556 142.479 258.177 142.232C258.802 141.984 259.502 141.861 260.276 141.861C261.121 141.861 261.85 141.98 262.462 142.218C263.078 142.452 263.55 142.787 263.879 143.224C264.211 143.66 264.378 144.18 264.378 144.782C264.378 145.331 264.198 145.79 263.838 146.159C263.478 146.528 262.974 146.791 262.327 146.948V147.056C262.754 147.083 263.141 147.198 263.487 147.4C263.834 147.603 264.11 147.882 264.317 148.237C264.524 148.588 264.627 149.004 264.627 149.485C264.627 150.128 264.439 150.679 264.061 151.138C263.687 151.597 263.17 151.95 262.509 152.197C261.852 152.44 261.099 152.562 260.249 152.562C259.421 152.562 258.679 152.443 258.022 152.204C257.37 151.961 256.85 151.606 256.463 151.138C256.081 150.67 255.879 150.099 255.856 149.424ZM269.345 152.555C268.684 152.555 268.095 152.44 267.578 152.211C267.06 151.977 266.651 151.633 266.35 151.179C266.053 150.72 265.904 150.149 265.904 149.465C265.904 148.889 266.01 148.406 266.222 148.014C266.433 147.623 266.721 147.308 267.085 147.07C267.449 146.831 267.863 146.651 268.327 146.53C268.794 146.408 269.285 146.323 269.797 146.273C270.4 146.21 270.886 146.152 271.255 146.098C271.624 146.04 271.891 145.954 272.058 145.842C272.224 145.729 272.307 145.563 272.307 145.342V145.302C272.307 144.875 272.172 144.544 271.903 144.31C271.637 144.076 271.259 143.959 270.769 143.959C270.252 143.959 269.84 144.074 269.534 144.303C269.228 144.528 269.026 144.812 268.927 145.153L266.269 144.938C266.404 144.308 266.669 143.763 267.065 143.305C267.461 142.841 267.971 142.486 268.597 142.239C269.226 141.987 269.955 141.861 270.783 141.861C271.358 141.861 271.909 141.928 272.436 142.063C272.966 142.198 273.436 142.407 273.846 142.691C274.26 142.974 274.586 143.338 274.824 143.784C275.063 144.225 275.182 144.753 275.182 145.369V152.359H272.456V150.922H272.375C272.208 151.246 271.986 151.532 271.707 151.779C271.428 152.022 271.093 152.213 270.702 152.353C270.31 152.488 269.858 152.555 269.345 152.555ZM270.169 150.571C270.591 150.571 270.965 150.488 271.289 150.322C271.612 150.151 271.867 149.921 272.051 149.634C272.235 149.346 272.328 149.02 272.328 148.655V147.555C272.238 147.614 272.114 147.668 271.957 147.717C271.804 147.762 271.63 147.805 271.437 147.846C271.244 147.882 271.05 147.915 270.857 147.947C270.663 147.974 270.488 147.998 270.331 148.021C269.993 148.07 269.699 148.149 269.447 148.257C269.195 148.365 268.999 148.511 268.86 148.696C268.72 148.876 268.65 149.1 268.65 149.37C268.65 149.762 268.792 150.061 269.076 150.268C269.363 150.47 269.728 150.571 270.169 150.571ZM277.412 152.359V141.996H286.473V152.359H283.727V144.256H280.124V152.359H277.412ZM288.767 156.246V141.996H291.601V143.737H291.729C291.855 143.458 292.037 143.174 292.276 142.886C292.519 142.594 292.833 142.351 293.22 142.158C293.612 141.96 294.097 141.861 294.678 141.861C295.433 141.861 296.131 142.059 296.769 142.455C297.408 142.846 297.919 143.437 298.301 144.229C298.683 145.016 298.874 146.004 298.874 147.191C298.874 148.347 298.688 149.323 298.314 150.119C297.946 150.911 297.442 151.511 296.803 151.921C296.169 152.326 295.458 152.528 294.671 152.528C294.113 152.528 293.639 152.436 293.247 152.251C292.86 152.067 292.543 151.835 292.296 151.556C292.049 151.273 291.86 150.987 291.729 150.7H291.641V156.246H288.767ZM291.581 147.178C291.581 147.794 291.666 148.331 291.837 148.79C292.008 149.249 292.255 149.607 292.579 149.863C292.903 150.115 293.297 150.241 293.76 150.241C294.228 150.241 294.624 150.113 294.948 149.856C295.271 149.595 295.517 149.235 295.683 148.777C295.854 148.313 295.939 147.78 295.939 147.178C295.939 146.579 295.856 146.053 295.69 145.599C295.523 145.144 295.278 144.789 294.954 144.533C294.63 144.276 294.232 144.148 293.76 144.148C293.292 144.148 292.896 144.272 292.573 144.519C292.253 144.767 292.008 145.117 291.837 145.572C291.666 146.026 291.581 146.561 291.581 147.178ZM305.473 152.562C304.425 152.562 303.519 152.339 302.754 151.894C301.994 151.444 301.407 150.819 300.993 150.018C300.579 149.213 300.372 148.28 300.372 147.218C300.372 146.147 300.579 145.212 300.993 144.411C301.407 143.606 301.994 142.981 302.754 142.536C303.519 142.086 304.425 141.861 305.473 141.861C306.521 141.861 307.425 142.086 308.185 142.536C308.95 142.981 309.539 143.606 309.953 144.411C310.367 145.212 310.574 146.147 310.574 147.218C310.574 148.28 310.367 149.213 309.953 150.018C309.539 150.819 308.95 151.444 308.185 151.894C307.425 152.339 306.521 152.562 305.473 152.562ZM305.487 150.335C305.963 150.335 306.361 150.2 306.681 149.93C307 149.656 307.241 149.283 307.403 148.81C307.569 148.338 307.652 147.801 307.652 147.198C307.652 146.595 307.569 146.058 307.403 145.585C307.241 145.113 307 144.74 306.681 144.465C306.361 144.191 305.963 144.054 305.487 144.054C305.005 144.054 304.6 144.191 304.272 144.465C303.948 144.74 303.703 145.113 303.537 145.585C303.375 146.058 303.294 146.595 303.294 147.198C303.294 147.801 303.375 148.338 303.537 148.81C303.703 149.283 303.948 149.656 304.272 149.93C304.6 150.2 305.005 150.335 305.487 150.335ZM317.125 152.562C316.064 152.562 315.151 152.337 314.386 151.887C313.626 151.433 313.041 150.803 312.632 149.998C312.227 149.193 312.025 148.266 312.025 147.218C312.025 146.156 312.229 145.225 312.639 144.425C313.052 143.62 313.639 142.992 314.4 142.542C315.16 142.088 316.064 141.861 317.112 141.861C318.016 141.861 318.808 142.025 319.487 142.353C320.166 142.682 320.704 143.143 321.1 143.737C321.495 144.33 321.714 145.027 321.754 145.828H319.042C318.965 145.311 318.763 144.895 318.434 144.58C318.111 144.261 317.685 144.101 317.159 144.101C316.714 144.101 316.325 144.222 315.992 144.465C315.664 144.704 315.407 145.052 315.223 145.511C315.038 145.97 314.946 146.525 314.946 147.178C314.946 147.839 315.036 148.401 315.216 148.864C315.4 149.328 315.659 149.681 315.992 149.924C316.325 150.167 316.714 150.288 317.159 150.288C317.488 150.288 317.782 150.221 318.043 150.086C318.308 149.951 318.527 149.755 318.698 149.499C318.873 149.238 318.988 148.925 319.042 148.561H321.754C321.709 149.352 321.493 150.05 321.106 150.652C320.724 151.251 320.195 151.718 319.521 152.056C318.846 152.393 318.048 152.562 317.125 152.562ZM325.396 145.18H328.493C329.865 145.18 330.935 145.509 331.704 146.165C332.474 146.818 332.858 147.69 332.858 148.783C332.858 149.494 332.685 150.119 332.339 150.659C331.992 151.194 331.493 151.613 330.841 151.914C330.189 152.211 329.406 152.359 328.493 152.359H323.594V141.996H326.34V150.099H328.493C328.974 150.099 329.37 149.978 329.68 149.735C329.991 149.492 330.148 149.181 330.153 148.804C330.148 148.403 329.991 148.077 329.68 147.825C329.37 147.569 328.974 147.441 328.493 147.441H325.396V145.18ZM333.971 152.359V141.996H336.846V152.359H333.971ZM350.753 146.031V148.291H345.342V146.031H350.753ZM346.287 141.996V152.359H343.541V141.996H346.287ZM352.555 141.996V152.359H349.829V141.996H352.555ZM357.74 152.555C357.079 152.555 356.489 152.44 355.972 152.211C355.455 151.977 355.046 151.633 354.744 151.179C354.447 150.72 354.299 150.149 354.299 149.465C354.299 148.889 354.405 148.406 354.616 148.014C354.827 147.623 355.115 147.308 355.48 147.07C355.844 146.831 356.258 146.651 356.721 146.53C357.189 146.408 357.679 146.323 358.192 146.273C358.795 146.21 359.281 146.152 359.649 146.098C360.018 146.04 360.286 145.954 360.452 145.842C360.619 145.729 360.702 145.563 360.702 145.342V145.302C360.702 144.875 360.567 144.544 360.297 144.31C360.032 144.076 359.654 143.959 359.164 143.959C358.646 143.959 358.235 144.074 357.929 144.303C357.623 144.528 357.421 144.812 357.322 145.153L354.663 144.938C354.798 144.308 355.064 143.763 355.459 143.305C355.855 142.841 356.366 142.486 356.991 142.239C357.621 141.987 358.349 141.861 359.177 141.861C359.753 141.861 360.304 141.928 360.83 142.063C361.361 142.198 361.831 142.407 362.24 142.691C362.654 142.974 362.98 143.338 363.219 143.784C363.457 144.225 363.576 144.753 363.576 145.369V152.359H360.85V150.922H360.769C360.603 151.246 360.38 151.532 360.101 151.779C359.823 152.022 359.487 152.213 359.096 152.353C358.705 152.488 358.253 152.555 357.74 152.555ZM358.563 150.571C358.986 150.571 359.359 150.488 359.683 150.322C360.007 150.151 360.261 149.921 360.446 149.634C360.63 149.346 360.722 149.02 360.722 148.655V147.555C360.632 147.614 360.509 147.668 360.351 147.717C360.198 147.762 360.025 147.805 359.832 147.846C359.638 147.882 359.445 147.915 359.251 147.947C359.058 147.974 358.882 147.998 358.725 148.021C358.388 148.07 358.093 148.149 357.841 148.257C357.589 148.365 357.394 148.511 357.254 148.696C357.115 148.876 357.045 149.1 357.045 149.37C357.045 149.762 357.187 150.061 357.47 150.268C357.758 150.47 358.122 150.571 358.563 150.571ZM369.394 155.396V150.079H370.19C370.42 149.935 370.604 149.705 370.743 149.391C370.887 149.076 371.004 148.705 371.094 148.277C371.189 147.85 371.261 147.389 371.31 146.894C371.364 146.395 371.411 145.891 371.452 145.383L371.722 141.996H379.67V150.079H381.276V155.396H378.536V152.359H372.201V155.396H369.394ZM373.051 150.079H376.958V144.209H374.164L374.056 145.383C373.98 146.489 373.87 147.429 373.726 148.203C373.582 148.972 373.357 149.598 373.051 150.079ZM387.633 152.562C386.585 152.562 385.679 152.339 384.914 151.894C384.154 151.444 383.567 150.819 383.153 150.018C382.739 149.213 382.532 148.28 382.532 147.218C382.532 146.147 382.739 145.212 383.153 144.411C383.567 143.606 384.154 142.981 384.914 142.536C385.679 142.086 386.585 141.861 387.633 141.861C388.681 141.861 389.585 142.086 390.346 142.536C391.11 142.981 391.7 143.606 392.113 144.411C392.527 145.212 392.734 146.147 392.734 147.218C392.734 148.28 392.527 149.213 392.113 150.018C391.7 150.819 391.11 151.444 390.346 151.894C389.585 152.339 388.681 152.562 387.633 152.562ZM387.647 150.335C388.124 150.335 388.522 150.2 388.841 149.93C389.16 149.656 389.401 149.283 389.563 148.81C389.729 148.338 389.813 147.801 389.813 147.198C389.813 146.595 389.729 146.058 389.563 145.585C389.401 145.113 389.16 144.74 388.841 144.465C388.522 144.191 388.124 144.054 387.647 144.054C387.165 144.054 386.761 144.191 386.432 144.465C386.108 144.74 385.863 145.113 385.697 145.585C385.535 146.058 385.454 146.595 385.454 147.198C385.454 147.801 385.535 148.338 385.697 148.81C385.863 149.283 386.108 149.656 386.432 149.93C386.761 150.2 387.165 150.335 387.647 150.335ZM403.219 138.19L404.096 140.066C403.804 140.309 403.48 140.489 403.125 140.606C402.769 140.718 402.344 140.792 401.85 140.828C401.359 140.864 400.761 140.889 400.055 140.903C399.254 140.912 398.602 141.04 398.098 141.287C397.594 141.535 397.212 141.924 396.951 142.455C396.69 142.981 396.519 143.669 396.438 144.519H396.54C396.85 143.885 397.286 143.395 397.848 143.048C398.415 142.702 399.115 142.529 399.947 142.529C400.828 142.529 401.6 142.722 402.261 143.109C402.927 143.496 403.444 144.051 403.813 144.776C404.182 145.5 404.366 146.368 404.366 147.38C404.366 148.433 404.159 149.348 403.745 150.126C403.336 150.9 402.754 151.5 401.998 151.928C401.242 152.35 400.343 152.562 399.299 152.562C398.251 152.562 397.347 152.341 396.587 151.901C395.831 151.46 395.246 150.81 394.832 149.951C394.423 149.092 394.218 148.034 394.218 146.779V145.929C394.218 143.433 394.704 141.582 395.676 140.376C396.647 139.171 398.076 138.559 399.96 138.541C400.473 138.532 400.936 138.53 401.35 138.534C401.764 138.539 402.126 138.519 402.437 138.474C402.751 138.429 403.012 138.334 403.219 138.19ZM399.313 150.335C399.753 150.335 400.131 150.221 400.446 149.991C400.765 149.762 401.011 149.433 401.182 149.006C401.357 148.579 401.445 148.068 401.445 147.474C401.445 146.885 401.357 146.386 401.182 145.977C401.011 145.563 400.765 145.248 400.446 145.032C400.127 144.816 399.744 144.708 399.299 144.708C398.966 144.708 398.667 144.769 398.402 144.89C398.136 145.012 397.909 145.192 397.72 145.43C397.536 145.664 397.392 145.954 397.288 146.3C397.189 146.642 397.14 147.034 397.14 147.474C397.14 148.361 397.331 149.06 397.714 149.573C398.1 150.081 398.633 150.335 399.313 150.335ZM409.229 152.555C408.568 152.555 407.979 152.44 407.461 152.211C406.944 151.977 406.535 151.633 406.233 151.179C405.937 150.72 405.788 150.149 405.788 149.465C405.788 148.889 405.894 148.406 406.105 148.014C406.317 147.623 406.605 147.308 406.969 147.07C407.333 146.831 407.747 146.651 408.21 146.53C408.678 146.408 409.169 146.323 409.681 146.273C410.284 146.21 410.77 146.152 411.139 146.098C411.508 146.04 411.775 145.954 411.942 145.842C412.108 145.729 412.191 145.563 412.191 145.342V145.302C412.191 144.875 412.056 144.544 411.786 144.31C411.521 144.076 411.143 143.959 410.653 143.959C410.136 143.959 409.724 144.074 409.418 144.303C409.112 144.528 408.91 144.812 408.811 145.153L406.153 144.938C406.287 144.308 406.553 143.763 406.949 143.305C407.345 142.841 407.855 142.486 408.48 142.239C409.11 141.987 409.839 141.861 410.666 141.861C411.242 141.861 411.793 141.928 412.319 142.063C412.85 142.198 413.32 142.407 413.73 142.691C414.143 142.974 414.47 143.338 414.708 143.784C414.946 144.225 415.066 144.753 415.066 145.369V152.359H412.34V150.922H412.259C412.092 151.246 411.87 151.532 411.591 151.779C411.312 152.022 410.977 152.213 410.585 152.353C410.194 152.488 409.742 152.555 409.229 152.555ZM410.052 150.571C410.475 150.571 410.849 150.488 411.172 150.322C411.496 150.151 411.75 149.921 411.935 149.634C412.119 149.346 412.211 149.02 412.211 148.655V147.555C412.122 147.614 411.998 147.668 411.84 147.717C411.687 147.762 411.514 147.805 411.321 147.846C411.127 147.882 410.934 147.915 410.741 147.947C410.547 147.974 410.372 147.998 410.214 148.021C409.877 148.07 409.582 148.149 409.33 148.257C409.079 148.365 408.883 148.511 408.743 148.696C408.604 148.876 408.534 149.1 408.534 149.37C408.534 149.762 408.676 150.061 408.959 150.268C409.247 150.47 409.612 150.571 410.052 150.571ZM417.295 152.359V141.996H421.715C422.992 141.996 424.002 142.239 424.744 142.724C425.487 143.21 425.858 143.901 425.858 144.796C425.858 145.358 425.648 145.826 425.23 146.199C424.812 146.573 424.232 146.824 423.489 146.955C424.11 147 424.639 147.142 425.075 147.38C425.516 147.614 425.851 147.917 426.08 148.291C426.314 148.664 426.431 149.078 426.431 149.532C426.431 150.122 426.274 150.628 425.959 151.05C425.648 151.473 425.192 151.797 424.589 152.022C423.991 152.247 423.26 152.359 422.396 152.359H417.295ZM419.974 150.207H422.396C422.797 150.207 423.109 150.113 423.334 149.924C423.564 149.73 423.678 149.467 423.678 149.134C423.678 148.765 423.564 148.475 423.334 148.264C423.109 148.052 422.797 147.947 422.396 147.947H419.974V150.207ZM419.974 146.26H421.776C422.063 146.26 422.309 146.219 422.511 146.138C422.718 146.053 422.875 145.932 422.983 145.774C423.096 145.617 423.152 145.43 423.152 145.214C423.152 144.895 423.024 144.645 422.767 144.465C422.511 144.285 422.16 144.195 421.715 144.195H419.974V146.26ZM427.635 152.359L427.622 150.079H427.966C428.209 150.079 428.418 150.02 428.594 149.903C428.773 149.782 428.922 149.586 429.039 149.316C429.156 149.047 429.248 148.689 429.316 148.244C429.383 147.794 429.428 147.241 429.45 146.584L429.619 141.996H437.5V152.359H434.76V144.256H432.203L432.041 147.42C432.001 148.289 431.895 149.035 431.724 149.661C431.558 150.286 431.326 150.799 431.029 151.199C430.732 151.595 430.375 151.887 429.956 152.076C429.538 152.265 429.052 152.359 428.499 152.359H427.635ZM444.451 152.562C443.385 152.562 442.467 152.346 441.698 151.914C440.934 151.478 440.344 150.862 439.93 150.065C439.517 149.265 439.31 148.318 439.31 147.225C439.31 146.159 439.517 145.223 439.93 144.418C440.344 143.613 440.927 142.985 441.678 142.536C442.434 142.086 443.32 141.861 444.336 141.861C445.02 141.861 445.657 141.971 446.246 142.191C446.84 142.407 447.357 142.733 447.798 143.17C448.243 143.606 448.589 144.155 448.837 144.816C449.084 145.473 449.208 146.242 449.208 147.124V147.913H440.457V146.132H446.502C446.502 145.718 446.412 145.351 446.232 145.032C446.052 144.713 445.803 144.463 445.483 144.283C445.169 144.099 444.802 144.006 444.384 144.006C443.947 144.006 443.56 144.108 443.223 144.31C442.89 144.508 442.629 144.776 442.44 145.113C442.252 145.446 442.155 145.817 442.15 146.226V147.92C442.15 148.433 442.245 148.876 442.434 149.249C442.627 149.622 442.899 149.91 443.25 150.113C443.601 150.315 444.017 150.416 444.498 150.416C444.818 150.416 445.11 150.371 445.375 150.281C445.641 150.191 445.868 150.056 446.057 149.876C446.246 149.696 446.39 149.476 446.489 149.215L449.147 149.391C449.012 150.029 448.736 150.587 448.317 151.064C447.903 151.536 447.368 151.905 446.711 152.17C446.059 152.431 445.306 152.562 444.451 152.562ZM458.296 146.031V148.291H452.885V146.031H458.296ZM453.83 141.996V152.359H451.084V141.996H453.83ZM460.098 141.996V152.359H457.372V141.996H460.098ZM465.074 148.567L468.805 141.996H471.639V152.359H468.899V145.767L465.182 152.359H462.328V141.996H465.074V148.567ZM478.666 152.562C477.6 152.562 476.682 152.346 475.913 151.914C475.148 151.478 474.559 150.862 474.145 150.065C473.732 149.265 473.525 148.318 473.525 147.225C473.525 146.159 473.732 145.223 474.145 144.418C474.559 143.613 475.142 142.985 475.893 142.536C476.649 142.086 477.535 141.861 478.551 141.861C479.235 141.861 479.871 141.971 480.461 142.191C481.054 142.407 481.572 142.733 482.013 143.17C482.458 143.606 482.804 144.155 483.052 144.816C483.299 145.473 483.423 146.242 483.423 147.124V147.913H474.672V146.132H480.717C480.717 145.718 480.627 145.351 480.447 145.032C480.267 144.713 480.018 144.463 479.698 144.283C479.383 144.099 479.017 144.006 478.598 144.006C478.162 144.006 477.775 144.108 477.438 144.31C477.105 144.508 476.844 144.776 476.655 145.113C476.466 145.446 476.37 145.817 476.365 146.226V147.92C476.365 148.433 476.46 148.876 476.649 149.249C476.842 149.622 477.114 149.91 477.465 150.113C477.816 150.315 478.232 150.416 478.713 150.416C479.033 150.416 479.325 150.371 479.59 150.281C479.856 150.191 480.083 150.056 480.272 149.876C480.461 149.696 480.605 149.476 480.704 149.215L483.362 149.391C483.227 150.029 482.95 150.587 482.532 151.064C482.118 151.536 481.583 151.905 480.926 152.17C480.274 152.431 479.521 152.562 478.666 152.562ZM489.696 152.359V141.996H494.115C495.393 141.996 496.403 142.239 497.145 142.724C497.887 143.21 498.258 143.901 498.258 144.796C498.258 145.358 498.049 145.826 497.631 146.199C497.212 146.573 496.632 146.824 495.89 146.955C496.51 147 497.039 147.142 497.475 147.38C497.916 147.614 498.251 147.917 498.481 148.291C498.715 148.664 498.831 149.078 498.831 149.532C498.831 150.122 498.674 150.628 498.359 151.05C498.049 151.473 497.592 151.797 496.99 152.022C496.391 152.247 495.66 152.359 494.797 152.359H489.696ZM492.374 150.207H494.797C495.197 150.207 495.51 150.113 495.735 149.924C495.964 149.73 496.079 149.467 496.079 149.134C496.079 148.765 495.964 148.475 495.735 148.264C495.51 148.052 495.197 147.947 494.797 147.947H492.374V150.207ZM492.374 146.26H494.176C494.464 146.26 494.709 146.219 494.911 146.138C495.118 146.053 495.276 145.932 495.384 145.774C495.496 145.617 495.552 145.43 495.552 145.214C495.552 144.895 495.424 144.645 495.168 144.465C494.911 144.285 494.561 144.195 494.115 144.195H492.374V146.26ZM504.231 155.396V150.079H505.027C505.256 149.935 505.441 149.705 505.58 149.391C505.724 149.076 505.841 148.705 505.931 148.277C506.026 147.85 506.098 147.389 506.147 146.894C506.201 146.395 506.248 145.891 506.289 145.383L506.559 141.996H514.507V150.079H516.113V155.396H513.373V152.359H507.038V155.396H504.231ZM507.888 150.079H511.794V144.209H509.001L508.893 145.383C508.817 146.489 508.707 147.429 508.563 148.203C508.419 148.972 508.194 149.598 507.888 150.079ZM517.788 156.246V141.996H520.621V143.737H520.75C520.876 143.458 521.058 143.174 521.296 142.886C521.539 142.594 521.854 142.351 522.241 142.158C522.632 141.96 523.118 141.861 523.698 141.861C524.454 141.861 525.151 142.059 525.79 142.455C526.429 142.846 526.939 143.437 527.321 144.229C527.704 145.016 527.895 146.004 527.895 147.191C527.895 148.347 527.708 149.323 527.335 150.119C526.966 150.911 526.462 151.511 525.824 151.921C525.189 152.326 524.479 152.528 523.691 152.528C523.134 152.528 522.659 152.436 522.268 152.251C521.881 152.067 521.564 151.835 521.316 151.556C521.069 151.273 520.88 150.987 520.75 150.7H520.662V156.246H517.788ZM520.601 147.178C520.601 147.794 520.687 148.331 520.858 148.79C521.029 149.249 521.276 149.607 521.6 149.863C521.924 150.115 522.317 150.241 522.781 150.241C523.248 150.241 523.644 150.113 523.968 149.856C524.292 149.595 524.537 149.235 524.703 148.777C524.874 148.313 524.96 147.78 524.96 147.178C524.96 146.579 524.877 146.053 524.71 145.599C524.544 145.144 524.299 144.789 523.975 144.533C523.651 144.276 523.253 144.148 522.781 144.148C522.313 144.148 521.917 144.272 521.593 144.519C521.274 144.767 521.029 145.117 520.858 145.572C520.687 146.026 520.601 146.561 520.601 147.178ZM531.252 156.246C530.887 156.246 530.545 156.217 530.226 156.158C529.911 156.104 529.65 156.034 529.443 155.949L530.091 153.803C530.428 153.907 530.732 153.963 531.002 153.972C531.276 153.981 531.512 153.918 531.71 153.783C531.913 153.648 532.077 153.419 532.203 153.095L532.372 152.656L528.654 141.996H531.677L533.822 149.607H533.93L536.096 141.996H539.139L535.111 153.479C534.918 154.037 534.654 154.523 534.322 154.937C533.993 155.355 533.577 155.677 533.073 155.902C532.57 156.131 531.962 156.246 531.252 156.246ZM540.077 149.424H542.863C542.877 149.766 543.03 150.036 543.322 150.234C543.615 150.432 543.992 150.531 544.456 150.531C544.924 150.531 545.317 150.423 545.637 150.207C545.956 149.987 546.116 149.672 546.116 149.262C546.116 149.011 546.053 148.792 545.927 148.608C545.801 148.419 545.625 148.271 545.4 148.163C545.175 148.055 544.915 148.001 544.618 148.001H543.127V146.118H544.618C545.063 146.118 545.405 146.015 545.643 145.808C545.886 145.601 546.008 145.342 546.008 145.032C546.008 144.681 545.882 144.4 545.63 144.189C545.382 143.973 545.047 143.865 544.624 143.865C544.197 143.865 543.842 143.961 543.558 144.155C543.28 144.344 543.136 144.591 543.127 144.897H540.354C540.363 144.276 540.549 143.739 540.914 143.284C541.282 142.83 541.777 142.479 542.398 142.232C543.023 141.984 543.723 141.861 544.496 141.861C545.342 141.861 546.071 141.98 546.682 142.218C547.299 142.452 547.771 142.787 548.099 143.224C548.432 143.66 548.599 144.18 548.599 144.782C548.599 145.331 548.419 145.79 548.059 146.159C547.699 146.528 547.195 146.791 546.547 146.948V147.056C546.975 147.083 547.362 147.198 547.708 147.4C548.054 147.603 548.331 147.882 548.538 148.237C548.745 148.588 548.848 149.004 548.848 149.485C548.848 150.128 548.659 150.679 548.281 151.138C547.908 151.597 547.391 151.95 546.73 152.197C546.073 152.44 545.319 152.562 544.469 152.562C543.642 152.562 542.899 152.443 542.243 152.204C541.59 151.961 541.071 151.606 540.684 151.138C540.302 150.67 540.099 150.099 540.077 149.424ZM552.412 145.18H555.509C556.881 145.18 557.952 145.509 558.721 146.165C559.49 146.818 559.875 147.69 559.875 148.783C559.875 149.494 559.702 150.119 559.355 150.659C559.009 151.194 558.51 151.613 557.857 151.914C557.205 152.211 556.422 152.359 555.509 152.359H550.611V141.996H553.357V150.099H555.509C555.991 150.099 556.386 149.978 556.697 149.735C557.007 149.492 557.165 149.181 557.169 148.804C557.165 148.403 557.007 148.077 556.697 147.825C556.386 147.569 555.991 147.441 555.509 147.441H552.412V145.18ZM567.853 152.359V144.249H565.91C565.384 144.249 564.983 144.371 564.709 144.614C564.435 144.857 564.3 145.144 564.304 145.477C564.3 145.815 564.43 146.1 564.696 146.334C564.965 146.564 565.361 146.678 565.883 146.678H568.811V148.621H565.883C564.997 148.621 564.23 148.487 563.582 148.217C562.935 147.947 562.435 147.571 562.084 147.09C561.734 146.604 561.56 146.04 561.565 145.396C561.56 144.722 561.734 144.13 562.084 143.622C562.435 143.109 562.937 142.711 563.589 142.428C564.246 142.14 565.019 141.996 565.91 141.996H570.532V152.359H567.853ZM561.268 152.359L564.149 146.962H566.895L564.021 152.359H561.268ZM579.909 148.567L583.64 141.996H586.474V152.359H583.734V145.767L580.017 152.359H577.163V141.996H579.909V148.567ZM593.175 156.246V141.996H596.009V143.737H596.137C596.263 143.458 596.445 143.174 596.684 142.886C596.927 142.594 597.242 142.351 597.628 142.158C598.02 141.96 598.506 141.861 599.086 141.861C599.842 141.861 600.539 142.059 601.177 142.455C601.816 142.846 602.327 143.437 602.709 144.229C603.091 145.016 603.283 146.004 603.283 147.191C603.283 148.347 603.096 149.323 602.723 150.119C602.354 150.911 601.85 151.511 601.211 151.921C600.577 152.326 599.866 152.528 599.079 152.528C598.521 152.528 598.047 152.436 597.655 152.251C597.269 152.067 596.951 151.835 596.704 151.556C596.457 151.273 596.268 150.987 596.137 150.7H596.05V156.246H593.175ZM595.989 147.178C595.989 147.794 596.074 148.331 596.245 148.79C596.416 149.249 596.664 149.607 596.987 149.863C597.311 150.115 597.705 150.241 598.168 150.241C598.636 150.241 599.032 150.113 599.356 149.856C599.68 149.595 599.925 149.235 600.091 148.777C600.262 148.313 600.348 147.78 600.348 147.178C600.348 146.579 600.264 146.053 600.098 145.599C599.931 145.144 599.686 144.789 599.362 144.533C599.039 144.276 598.641 144.148 598.168 144.148C597.7 144.148 597.305 144.272 596.981 144.519C596.661 144.767 596.416 145.117 596.245 145.572C596.074 146.026 595.989 146.561 595.989 147.178ZM609.922 152.562C608.856 152.562 607.938 152.346 607.169 151.914C606.404 151.478 605.815 150.862 605.401 150.065C604.987 149.265 604.78 148.318 604.78 147.225C604.78 146.159 604.987 145.223 605.401 144.418C605.815 143.613 606.398 142.985 607.149 142.536C607.904 142.086 608.791 141.861 609.807 141.861C610.491 141.861 611.127 141.971 611.717 142.191C612.31 142.407 612.828 142.733 613.268 143.17C613.714 143.606 614.06 144.155 614.307 144.816C614.555 145.473 614.679 146.242 614.679 147.124V147.913H605.927V146.132H611.973C611.973 145.718 611.883 145.351 611.703 145.032C611.523 144.713 611.273 144.463 610.954 144.283C610.639 144.099 610.273 144.006 609.854 144.006C609.418 144.006 609.031 144.108 608.694 144.31C608.361 144.508 608.1 144.776 607.911 145.113C607.722 145.446 607.626 145.817 607.621 146.226V147.92C607.621 148.433 607.715 148.876 607.904 149.249C608.098 149.622 608.37 149.91 608.721 150.113C609.072 150.315 609.488 150.416 609.969 150.416C610.288 150.416 610.581 150.371 610.846 150.281C611.112 150.191 611.339 150.056 611.528 149.876C611.717 149.696 611.86 149.476 611.959 149.215L614.618 149.391C614.483 150.029 614.206 150.587 613.788 151.064C613.374 151.536 612.839 151.905 612.182 152.17C611.53 152.431 610.776 152.562 609.922 152.562ZM616.554 152.359V141.996H619.429V146.017H620.238L623.059 141.996H626.432L622.768 147.137L626.473 152.359H623.059L620.501 148.682H619.429V152.359H616.554ZM631.943 152.562C630.895 152.562 629.988 152.339 629.224 151.894C628.464 151.444 627.877 150.819 627.463 150.018C627.049 149.213 626.842 148.28 626.842 147.218C626.842 146.147 627.049 145.212 627.463 144.411C627.877 143.606 628.464 142.981 629.224 142.536C629.988 142.086 630.895 141.861 631.943 141.861C632.991 141.861 633.895 142.086 634.655 142.536C635.42 142.981 636.009 143.606 636.423 144.411C636.837 145.212 637.044 146.147 637.044 147.218C637.044 148.28 636.837 149.213 636.423 150.018C636.009 150.819 635.42 151.444 634.655 151.894C633.895 152.339 632.991 152.562 631.943 152.562ZM631.956 150.335C632.433 150.335 632.831 150.2 633.151 149.93C633.47 149.656 633.711 149.283 633.873 148.81C634.039 148.338 634.122 147.801 634.122 147.198C634.122 146.595 634.039 146.058 633.873 145.585C633.711 145.113 633.47 144.74 633.151 144.465C632.831 144.191 632.433 144.054 631.956 144.054C631.475 144.054 631.07 144.191 630.742 144.465C630.418 144.74 630.173 145.113 630.006 145.585C629.844 146.058 629.763 146.595 629.763 147.198C629.763 147.801 629.844 148.338 630.006 148.81C630.173 149.283 630.418 149.656 630.742 149.93C631.07 150.2 631.475 150.335 631.956 150.335ZM645.039 149.181L647.846 141.996H650.032L645.99 152.359H644.081L640.134 141.996H642.313L645.039 149.181ZM641.659 141.996V152.359H638.913V141.996H641.659ZM648.561 152.359V141.996H651.273V152.359H648.561ZM658.22 152.562C657.154 152.562 656.236 152.346 655.467 151.914C654.702 151.478 654.113 150.862 653.699 150.065C653.285 149.265 653.078 148.318 653.078 147.225C653.078 146.159 653.285 145.223 653.699 144.418C654.113 143.613 654.695 142.985 655.447 142.536C656.202 142.086 657.088 141.861 658.105 141.861C658.789 141.861 659.425 141.971 660.014 142.191C660.608 142.407 661.125 142.733 661.566 143.17C662.012 143.606 662.358 144.155 662.605 144.816C662.853 145.473 662.976 146.242 662.976 147.124V147.913H654.225V146.132H660.271C660.271 145.718 660.181 145.351 660.001 145.032C659.821 144.713 659.571 144.463 659.252 144.283C658.937 144.099 658.57 144.006 658.152 144.006C657.716 144.006 657.329 144.108 656.992 144.31C656.659 144.508 656.398 144.776 656.209 145.113C656.02 145.446 655.923 145.817 655.919 146.226V147.92C655.919 148.433 656.013 148.876 656.202 149.249C656.396 149.622 656.668 149.91 657.019 150.113C657.369 150.315 657.786 150.416 658.267 150.416C658.586 150.416 658.879 150.371 659.144 150.281C659.409 150.191 659.637 150.056 659.825 149.876C660.014 149.696 660.158 149.476 660.257 149.215L662.916 149.391C662.781 150.029 662.504 150.587 662.086 151.064C661.672 151.536 661.137 151.905 660.48 152.17C659.828 152.431 659.074 152.562 658.22 152.562ZM672.065 146.031V148.291H666.654V146.031H672.065ZM667.598 141.996V152.359H664.852V141.996H667.598ZM673.866 141.996V152.359H671.14V141.996H673.866ZM675.287 155.396V150.079H676.083C676.312 149.935 676.497 149.705 676.636 149.391C676.78 149.076 676.897 148.705 676.987 148.277C677.081 147.85 677.153 147.389 677.203 146.894C677.257 146.395 677.304 145.891 677.344 145.383L677.614 141.996H685.562V150.079H687.168V155.396H684.429V152.359H678.093V155.396H675.287ZM678.944 150.079H682.85V144.209H680.057L679.949 145.383C679.872 146.489 679.762 147.429 679.618 148.203C679.474 148.972 679.249 149.598 678.944 150.079ZM690.618 156.246C690.253 156.246 689.912 156.217 689.592 156.158C689.277 156.104 689.016 156.034 688.81 155.949L689.457 153.803C689.795 153.907 690.098 153.963 690.368 153.972C690.643 153.981 690.879 153.918 691.077 153.783C691.279 153.648 691.443 153.419 691.569 153.095L691.738 152.656L688.02 141.996H691.043L693.188 149.607H693.296L695.462 141.996H698.505L694.477 153.479C694.284 154.037 694.021 154.523 693.688 154.937C693.359 155.355 692.943 155.677 692.44 155.902C691.936 156.131 691.329 156.246 690.618 156.246ZM704.365 152.562C703.299 152.562 702.381 152.346 701.612 151.914C700.848 151.478 700.258 150.862 699.845 150.065C699.431 149.265 699.224 148.318 699.224 147.225C699.224 146.159 699.431 145.223 699.845 144.418C700.258 143.613 700.841 142.985 701.592 142.536C702.348 142.086 703.234 141.861 704.25 141.861C704.934 141.861 705.571 141.971 706.16 142.191C706.754 142.407 707.271 142.733 707.712 143.17C708.157 143.606 708.503 144.155 708.751 144.816C708.998 145.473 709.122 146.242 709.122 147.124V147.913H700.371V146.132H706.416C706.416 145.718 706.326 145.351 706.146 145.032C705.966 144.713 705.717 144.463 705.397 144.283C705.083 144.099 704.716 144.006 704.298 144.006C703.861 144.006 703.475 144.108 703.137 144.31C702.804 144.508 702.543 144.776 702.354 145.113C702.166 145.446 702.069 145.817 702.064 146.226V147.92C702.064 148.433 702.159 148.876 702.348 149.249C702.541 149.622 702.813 149.91 703.164 150.113C703.515 150.315 703.931 150.416 704.412 150.416C704.732 150.416 705.024 150.371 705.29 150.281C705.555 150.191 705.782 150.056 705.971 149.876C706.16 149.696 706.304 149.476 706.403 149.215L709.061 149.391C708.926 150.029 708.65 150.587 708.231 151.064C707.817 151.536 707.282 151.905 706.625 152.17C705.973 152.431 705.22 152.562 704.365 152.562ZM717.124 149.181L719.931 141.996H722.117L718.075 152.359H716.166L712.219 141.996H714.398L717.124 149.181ZM713.744 141.996V152.359H710.998V141.996H713.744ZM720.646 152.359V141.996H723.358V152.359H720.646ZM727.383 145.18H730.48C731.852 145.18 732.922 145.509 733.692 146.165C734.461 146.818 734.845 147.69 734.845 148.783C734.845 149.494 734.672 150.119 734.326 150.659C733.98 151.194 733.48 151.613 732.828 151.914C732.176 152.211 731.393 152.359 730.48 152.359H725.582V141.996H728.328V150.099H730.48C730.961 150.099 731.357 149.978 731.668 149.735C731.978 149.492 732.135 149.181 732.14 148.804C732.135 148.403 731.978 148.077 731.668 147.825C731.357 147.569 730.961 147.441 730.48 147.441H727.383V145.18ZM735.959 152.359V141.996H738.833V152.359H735.959ZM745.853 152.562C744.787 152.562 743.87 152.346 743.101 151.914C742.336 151.478 741.747 150.862 741.333 150.065C740.919 149.265 740.712 148.318 740.712 147.225C740.712 146.159 740.919 145.223 741.333 144.418C741.747 143.613 742.329 142.985 743.08 142.536C743.836 142.086 744.722 141.861 745.739 141.861C746.422 141.861 747.059 141.971 747.648 142.191C748.242 142.407 748.759 142.733 749.2 143.17C749.645 143.606 749.992 144.155 750.239 144.816C750.486 145.473 750.61 146.242 750.61 147.124V147.913H741.859V146.132H747.905C747.905 145.718 747.815 145.351 747.635 145.032C747.455 144.713 747.205 144.463 746.886 144.283C746.571 144.099 746.204 144.006 745.786 144.006C745.35 144.006 744.963 144.108 744.625 144.31C744.293 144.508 744.032 144.776 743.843 145.113C743.654 145.446 743.557 145.817 743.553 146.226V147.92C743.553 148.433 743.647 148.876 743.836 149.249C744.029 149.622 744.302 149.91 744.652 150.113C745.003 150.315 745.419 150.416 745.901 150.416C746.22 150.416 746.512 150.371 746.778 150.281C747.043 150.191 747.27 150.056 747.459 149.876C747.648 149.696 747.792 149.476 747.891 149.215L750.549 149.391C750.415 150.029 750.138 150.587 749.72 151.064C749.306 151.536 748.77 151.905 748.114 152.17C747.461 152.431 746.708 152.562 745.853 152.562ZM756.074 155.396V150.079H756.87C757.099 149.935 757.284 149.705 757.423 149.391C757.567 149.076 757.684 148.705 757.774 148.277C757.868 147.85 757.94 147.389 757.99 146.894C758.044 146.395 758.091 145.891 758.132 145.383L758.401 141.996H766.35V150.079H767.955V155.396H765.216V152.359H758.881V155.396H756.074ZM759.731 150.079H763.637V144.209H760.844L760.736 145.383C760.66 146.489 760.549 147.429 760.405 148.203C760.261 148.972 760.037 149.598 759.731 150.079ZM769.63 156.246V141.996H772.464V143.737H772.592C772.718 143.458 772.901 143.174 773.139 142.886C773.382 142.594 773.697 142.351 774.084 142.158C774.475 141.96 774.961 141.861 775.541 141.861C776.297 141.861 776.994 142.059 777.633 142.455C778.271 142.846 778.782 143.437 779.164 144.229C779.546 145.016 779.738 146.004 779.738 147.191C779.738 148.347 779.551 149.323 779.178 150.119C778.809 150.911 778.305 151.511 777.666 151.921C777.032 152.326 776.321 152.528 775.534 152.528C774.976 152.528 774.502 152.436 774.111 152.251C773.724 152.067 773.407 151.835 773.159 151.556C772.912 151.273 772.723 150.987 772.592 150.7H772.505V156.246H769.63ZM772.444 147.178C772.444 147.794 772.529 148.331 772.7 148.79C772.871 149.249 773.119 149.607 773.443 149.863C773.766 150.115 774.16 150.241 774.623 150.241C775.091 150.241 775.487 150.113 775.811 149.856C776.135 149.595 776.38 149.235 776.546 148.777C776.717 148.313 776.803 147.78 776.803 147.178C776.803 146.579 776.719 146.053 776.553 145.599C776.387 145.144 776.141 144.789 775.818 144.533C775.494 144.276 775.096 144.148 774.623 144.148C774.156 144.148 773.76 144.272 773.436 144.519C773.116 144.767 772.871 145.117 772.7 145.572C772.529 146.026 772.444 146.561 772.444 147.178ZM783.094 156.246C782.73 156.246 782.388 156.217 782.069 156.158C781.754 156.104 781.493 156.034 781.286 155.949L781.934 153.803C782.271 153.907 782.575 153.963 782.845 153.972C783.119 153.981 783.355 153.918 783.553 153.783C783.756 153.648 783.92 153.419 784.046 153.095L784.214 152.656L780.497 141.996H783.519L785.665 149.607H785.773L787.939 141.996H790.982L786.954 153.479C786.76 154.037 786.497 154.523 786.164 154.937C785.836 155.355 785.42 155.677 784.916 155.902C784.412 156.131 783.805 156.246 783.094 156.246ZM791.92 149.424H794.706C794.72 149.766 794.873 150.036 795.165 150.234C795.457 150.432 795.835 150.531 796.299 150.531C796.766 150.531 797.16 150.423 797.479 150.207C797.799 149.987 797.958 149.672 797.958 149.262C797.958 149.011 797.895 148.792 797.769 148.608C797.643 148.419 797.468 148.271 797.243 148.163C797.018 148.055 796.757 148.001 796.46 148.001H794.969V146.118H796.46C796.906 146.118 797.248 146.015 797.486 145.808C797.729 145.601 797.85 145.342 797.85 145.032C797.85 144.681 797.724 144.4 797.473 144.189C797.225 143.973 796.89 143.865 796.467 143.865C796.04 143.865 795.685 143.961 795.401 144.155C795.122 144.344 794.978 144.591 794.969 144.897H792.196C792.205 144.276 792.392 143.739 792.756 143.284C793.125 142.83 793.62 142.479 794.241 142.232C794.866 141.984 795.565 141.861 796.339 141.861C797.185 141.861 797.913 141.98 798.525 142.218C799.141 142.452 799.614 142.787 799.942 143.224C800.275 143.66 800.441 144.18 800.441 144.782C800.441 145.331 800.261 145.79 799.902 146.159C799.542 146.528 799.038 146.791 798.39 146.948V147.056C798.818 147.083 799.204 147.198 799.551 147.4C799.897 147.603 800.174 147.882 800.381 148.237C800.588 148.588 800.691 149.004 800.691 149.485C800.691 150.128 800.502 150.679 800.124 151.138C799.751 151.597 799.234 151.95 798.572 152.197C797.916 152.44 797.162 152.562 796.312 152.562C795.484 152.562 794.742 152.443 794.085 152.204C793.433 151.961 792.914 151.606 792.527 151.138C792.145 150.67 791.942 150.099 791.92 149.424ZM804.255 145.18H807.352C808.724 145.18 809.795 145.509 810.564 146.165C811.333 146.818 811.718 147.69 811.718 148.783C811.718 149.494 811.544 150.119 811.198 150.659C810.852 151.194 810.352 151.613 809.7 151.914C809.048 152.211 808.265 152.359 807.352 152.359H802.454V141.996H805.2V150.099H807.352C807.833 150.099 808.229 149.978 808.54 149.735C808.85 149.492 809.007 149.181 809.012 148.804C809.007 148.403 808.85 148.077 808.54 147.825C808.229 147.569 807.833 147.441 807.352 147.441H804.255V145.18ZM819.696 152.359V144.249H817.753C817.227 144.249 816.826 144.371 816.552 144.614C816.277 144.857 816.143 145.144 816.147 145.477C816.143 145.815 816.273 146.1 816.538 146.334C816.808 146.564 817.204 146.678 817.726 146.678H820.654V148.621H817.726C816.84 148.621 816.073 148.487 815.425 148.217C814.777 147.947 814.278 147.571 813.927 147.09C813.576 146.604 813.403 146.04 813.408 145.396C813.403 144.722 813.576 144.13 813.927 143.622C814.278 143.109 814.78 142.711 815.432 142.428C816.089 142.14 816.862 141.996 817.753 141.996H822.375V152.359H819.696ZM813.111 152.359L815.992 146.962H818.738L815.864 152.359H813.111ZM826.288 152.535C825.843 152.535 825.46 152.377 825.141 152.062C824.826 151.743 824.669 151.361 824.669 150.915C824.669 150.475 824.826 150.097 825.141 149.782C825.46 149.467 825.843 149.31 826.288 149.31C826.72 149.31 827.098 149.467 827.422 149.782C827.745 150.097 827.907 150.475 827.907 150.915C827.907 151.212 827.831 151.484 827.678 151.732C827.529 151.975 827.334 152.17 827.091 152.319C826.848 152.463 826.58 152.535 826.288 152.535Z" fill="#65676B"/>
<defs>
<clipPath id="clip0_360_2485">
<rect width="112" height="112" fill="white" transform="translate(375.76 24.7812)"/>
</clipPath>
</defs>
</svg>
