<svg width="20" height="20" viewBox="0 0 20 20" fill="none" xmlns="http://www.w3.org/2000/svg">
<path d="M3.18186 5.90907C4.68809 5.90907 5.90914 4.68803 5.90914 3.1818C5.90914 1.67557 4.68809 0.454529 3.18186 0.454529C1.67563 0.454529 0.45459 1.67557 0.45459 3.1818C0.45459 4.68803 1.67563 5.90907 3.18186 5.90907Z" fill="#050505"/>
<path d="M9.99998 5.90907C11.5062 5.90907 12.7273 4.68803 12.7273 3.1818C12.7273 1.67557 11.5062 0.454529 9.99998 0.454529C8.49375 0.454529 7.27271 1.67557 7.27271 3.1818C7.27271 4.68803 8.49375 5.90907 9.99998 5.90907Z" fill="#050505"/>
<path d="M16.8182 5.90907C18.3244 5.90907 19.5455 4.68803 19.5455 3.1818C19.5455 1.67557 18.3244 0.454529 16.8182 0.454529C15.312 0.454529 14.0909 1.67557 14.0909 3.1818C14.0909 4.68803 15.312 5.90907 16.8182 5.90907Z" fill="#050505"/>
<path d="M3.18186 12.7273C4.68809 12.7273 5.90914 11.5062 5.90914 9.99998C5.90914 8.49375 4.68809 7.27271 3.18186 7.27271C1.67563 7.27271 0.45459 8.49375 0.45459 9.99998C0.45459 11.5062 1.67563 12.7273 3.18186 12.7273Z" fill="#050505"/>
<path d="M9.99998 12.7273C11.5062 12.7273 12.7273 11.5062 12.7273 9.99998C12.7273 8.49375 11.5062 7.27271 9.99998 7.27271C8.49375 7.27271 7.27271 8.49375 7.27271 9.99998C7.27271 11.5062 8.49375 12.7273 9.99998 12.7273Z" fill="#050505"/>
<path d="M16.8182 12.7273C18.3244 12.7273 19.5455 11.5062 19.5455 9.99998C19.5455 8.49375 18.3244 7.27271 16.8182 7.27271C15.312 7.27271 14.0909 8.49375 14.0909 9.99998C14.0909 11.5062 15.312 12.7273 16.8182 12.7273Z" fill="#050505"/>
<path d="M3.18186 19.5454C4.68809 19.5454 5.90914 18.3244 5.90914 16.8182C5.90914 15.3119 4.68809 14.0909 3.18186 14.0909C1.67563 14.0909 0.45459 15.3119 0.45459 16.8182C0.45459 18.3244 1.67563 19.5454 3.18186 19.5454Z" fill="#050505"/>
<path d="M9.99998 19.5454C11.5062 19.5454 12.7273 18.3244 12.7273 16.8182C12.7273 15.3119 11.5062 14.0909 9.99998 14.0909C8.49375 14.0909 7.27271 15.3119 7.27271 16.8182C7.27271 18.3244 8.49375 19.5454 9.99998 19.5454Z" fill="#050505"/>
<path d="M16.8182 19.5454C18.3244 19.5454 19.5455 18.3244 19.5455 16.8182C19.5455 15.3119 18.3244 14.0909 16.8182 14.0909C15.312 14.0909 14.0909 15.3119 14.0909 16.8182C14.0909 18.3244 15.312 19.5454 16.8182 19.5454Z" fill="#050505"/>
</svg>
