<svg width="20" height="20" viewBox="0 0 20 20" fill="none" xmlns="http://www.w3.org/2000/svg">
<path d="M5.60496 16.7771C6.57639 16.7771 8.17353 16.6878 10.3335 16.29C9.95996 17.3057 8.98639 18.0335 7.84282 18.0335C6.89211 18.0335 6.05925 17.53 5.58925 16.7771H5.60496ZM17.8021 11.2357C17.9785 12.1443 17.3414 12.9478 15.9071 13.6257C15.1214 13.9964 13.3742 14.7021 10.4885 15.2635C8.26282 15.6957 6.63211 15.795 5.60568 15.795C5.30068 15.795 5.04853 15.7864 4.84996 15.775C3.26711 15.6843 2.37425 15.1771 2.19782 14.2685C1.92996 12.8921 2.35353 12.3607 3.05568 11.4807L3.24068 11.2485C3.71425 10.6478 3.89925 10.0578 3.59639 8.5014C2.91853 5.01569 4.48853 2.63355 7.90282 1.9664C11.3185 1.30712 13.6671 2.92569 14.345 6.41212C14.6471 7.96855 15.04 8.44569 15.7042 8.82497V8.82569L15.9628 8.97212C16.9428 9.52497 17.5342 9.85855 17.8021 11.2357Z" fill="#050505"/>
</svg>
