<svg width="29" height="17" viewBox="0 0 29 17" fill="none" xmlns="http://www.w3.org/2000/svg">
<path d="M7.07031 6.69727V11.3639C7.07031 11.596 7.1625 11.8186 7.3266 11.9827C7.49069 12.1467 7.71325 12.2389 7.94531 12.2389C8.17738 12.2389 8.39993 12.1467 8.56403 11.9827C8.72812 11.8186 8.82031 11.596 8.82031 11.3639V6.69727C8.82031 6.4652 8.72812 6.24264 8.56403 6.07855C8.39993 5.91445 8.17738 5.82227 7.94531 5.82227C7.71325 5.82227 7.49069 5.91445 7.3266 6.07855C7.1625 6.24264 7.07031 6.4652 7.07031 6.69727Z" fill="#65676B"/>
<path d="M5.61328 9.90527H10.2799C10.512 9.90527 10.7346 9.81309 10.8987 9.64899C11.0628 9.4849 11.1549 9.26234 11.1549 9.03027C11.1549 8.79821 11.0628 8.57565 10.8987 8.41155C10.7346 8.24746 10.512 8.15527 10.2799 8.15527H5.61328C5.38122 8.15527 5.15866 8.24746 4.99457 8.41155C4.83047 8.57565 4.73828 8.79821 4.73828 9.03027C4.73828 9.26234 4.83047 9.4849 4.99457 9.64899C5.15866 9.81309 5.38122 9.90527 5.61328 9.90527Z" fill="#65676B"/>
<path d="M19.9036 16.9056H8.23698C6.07104 16.9056 3.99382 16.0452 2.46228 14.5136C0.930729 12.9821 0.0703125 10.9049 0.0703125 8.73893C0.0703125 6.573 0.930729 4.49577 2.46228 2.96423C3.99382 1.43268 6.07104 0.572266 8.23698 0.572266H19.9036C22.0696 0.572266 24.1468 1.43268 25.6783 2.96423C27.2099 4.49577 28.0703 6.573 28.0703 8.73893C28.0703 10.9049 27.2099 12.9821 25.6783 14.5136C24.1468 16.0452 22.0696 16.9056 19.9036 16.9056ZM19.9036 15.1556C21.6055 15.1556 23.2376 14.4796 24.4409 13.2762C25.6443 12.0728 26.3203 10.4407 26.3203 8.73893C26.3203 7.03713 25.6443 5.40502 24.4409 4.20166C23.2376 2.99831 21.6055 2.32227 19.9036 2.32227H8.23698C6.53517 2.32227 4.90307 2.99831 3.69971 4.20166C2.49636 5.40502 1.82031 7.03713 1.82031 8.73893C1.82031 10.4407 2.49636 12.0728 3.69971 13.2762C4.90307 14.4796 6.53517 15.1556 8.23698 15.1556H19.9036Z" fill="#65676B"/>
<path fill-rule="evenodd" clip-rule="evenodd" d="M19.319 10.7806C19.319 11.1674 19.1654 11.5383 18.8919 11.8118C18.6184 12.0853 18.2475 12.2389 17.8607 12.2389C17.4739 12.2389 17.103 12.0853 16.8295 11.8118C16.556 11.5383 16.4023 11.1674 16.4023 10.7806C16.4023 10.3938 16.556 10.0229 16.8295 9.7494C17.103 9.47591 17.4739 9.32227 17.8607 9.32227C18.2475 9.32227 18.6184 9.47591 18.8919 9.7494C19.1654 10.0229 19.319 10.3938 19.319 10.7806ZM22.819 7.2806C22.819 7.66737 22.6654 8.03831 22.3919 8.3118C22.1184 8.58529 21.7475 8.73893 21.3607 8.73893C20.9739 8.73893 20.603 8.58529 20.3295 8.3118C20.056 8.03831 19.9023 7.66737 19.9023 7.2806C19.9023 6.89382 20.056 6.52289 20.3295 6.2494C20.603 5.97591 20.9739 5.82227 21.3607 5.82227C21.7475 5.82227 22.1184 5.97591 22.3919 6.2494C22.6654 6.52289 22.819 6.89382 22.819 7.2806Z" fill="#65676B"/>
</svg>
