<svg width="29" height="18" viewBox="0 0 29 18" fill="none" xmlns="http://www.w3.org/2000/svg">
<path fill-rule="evenodd" clip-rule="evenodd" d="M22.168 9.11979C21.7812 9.11979 21.4103 8.96614 21.1368 8.69265C20.8633 8.41916 20.7096 8.04823 20.7096 7.66146C20.7096 7.27468 20.8633 6.90375 21.1368 6.63026C21.4103 6.35677 21.7812 6.20312 22.168 6.20312C22.5547 6.20312 22.9257 6.35677 23.1992 6.63026C23.4727 6.90375 23.6263 7.27468 23.6263 7.66146C23.6263 8.04823 23.4727 8.41916 23.1992 8.69265C22.9257 8.96614 22.5547 9.11979 22.168 9.11979ZM18.668 12.6198C18.2812 12.6198 17.9103 12.4661 17.6368 12.1927C17.3633 11.9192 17.2096 11.5482 17.2096 11.1615C17.2096 10.7747 17.3633 10.4038 17.6368 10.1303C17.9103 9.85677 18.2812 9.70312 18.668 9.70312C19.0547 9.70312 19.4257 9.85677 19.6992 10.1303C19.9727 10.4038 20.1263 10.7747 20.1263 11.1615C20.1263 11.5482 19.9727 11.9192 19.6992 12.1927C19.4257 12.4661 19.0547 12.6198 18.668 12.6198ZM10.5013 10.2865H9.04297V11.7448C9.04297 11.9769 8.95079 12.1994 8.78669 12.3635C8.6226 12.5276 8.40003 12.6198 8.16797 12.6198C7.9359 12.6198 7.71334 12.5276 7.54924 12.3635C7.38515 12.1994 7.29297 11.9769 7.29297 11.7448V10.2865H5.83464C5.60257 10.2865 5.38001 10.1943 5.21591 10.0302C5.05182 9.86609 4.95964 9.64352 4.95964 9.41146C4.95964 9.17939 5.05182 8.95683 5.21591 8.79273C5.38001 8.62864 5.60257 8.53646 5.83464 8.53646H7.29297V7.07812C7.29297 6.84606 7.38515 6.6235 7.54924 6.4594C7.71334 6.29531 7.9359 6.20312 8.16797 6.20312C8.40003 6.20312 8.6226 6.29531 8.78669 6.4594C8.95079 6.6235 9.04297 6.84606 9.04297 7.07812V8.53646H10.5013C10.7334 8.53646 10.9559 8.62864 11.12 8.79273C11.2841 8.95683 11.3763 9.17939 11.3763 9.41146C11.3763 9.64352 11.2841 9.86609 11.12 10.0302C10.9559 10.1943 10.7334 10.2865 10.5013 10.2865ZM20.1263 0.953125H8.45963C3.9563 0.953125 0.292969 4.61646 0.292969 9.11979C0.292969 13.6231 3.9563 17.2865 8.45963 17.2865H20.1263C24.6296 17.2865 28.293 13.6231 28.293 9.11979C28.293 4.61646 24.6296 0.953125 20.1263 0.953125Z" fill="#1B74E4"/>
</svg>
