<svg width="18" height="19" viewBox="0 0 18 19" fill="none" xmlns="http://www.w3.org/2000/svg">
<path d="M9 0.953125C6.61305 0.953125 4.32387 1.90134 2.63604 3.58916C0.948212 5.27699 0 7.56618 0 9.95312C0 12.3401 0.948212 14.6293 2.63604 16.3171C4.32387 18.0049 6.61305 18.9531 9 18.9531C11.3869 18.9531 13.6761 18.0049 15.364 16.3171C17.0518 14.6293 18 12.3401 18 9.95312C18 7.56618 17.0518 5.27699 15.364 3.58916C13.6761 1.90134 11.3869 0.953125 9 0.953125V0.953125Z" fill="url(#paint0_linear_306_259)"/>
<g filter="url(#filter0_i_306_259)">
<path d="M9 0.953125C6.61305 0.953125 4.32387 1.90134 2.63604 3.58916C0.948212 5.27699 0 7.56618 0 9.95312C0 12.3401 0.948212 14.6293 2.63604 16.3171C4.32387 18.0049 6.61305 18.9531 9 18.9531C11.3869 18.9531 13.6761 18.0049 15.364 16.3171C17.0518 14.6293 18 12.3401 18 9.95312C18 7.56618 17.0518 5.27699 15.364 3.58916C13.6761 1.90134 11.3869 0.953125 9 0.953125V0.953125Z" fill="black"/>
</g>
<path d="M13.6823 9.20837C13.8802 9.34675 14.0625 9.484 14.0625 9.96663C14.0625 10.4504 13.8049 10.6461 13.5293 10.7823C13.6419 10.9659 13.6779 11.1865 13.6294 11.3965C13.5427 11.7835 13.1884 12.0839 12.8734 12.1727C13.0095 12.391 13.0522 12.6059 12.8903 12.8703C12.6821 13.2021 12.501 13.3281 11.7 13.3281H8.4375C7.326 13.3281 6.75 12.7139 6.75 12.2031V9.57625C6.75 8.1925 8.40037 7.01687 8.40037 6.055L8.28113 4.85688C8.2755 4.78375 8.29013 4.60488 8.34637 4.55313C8.43638 4.46425 8.685 4.32812 9.06075 4.32812C9.306 4.32812 9.46913 4.37425 9.6615 4.4665C10.3151 4.77812 10.485 5.56675 10.485 6.20125C10.485 6.50612 10.0193 7.41962 9.95625 7.73575C9.95625 7.73575 10.9316 7.51975 12.0701 7.51187C13.2638 7.50512 14.0377 7.72562 14.0377 8.45913C14.0377 8.75275 13.7914 9.0475 13.6823 9.20837ZM4.05 8.82812H4.95C5.12902 8.82812 5.30071 8.89924 5.4273 9.02583C5.55388 9.15241 5.625 9.3241 5.625 9.50312V13.7781C5.625 13.9571 5.55388 14.1288 5.4273 14.2554C5.30071 14.382 5.12902 14.4531 4.95 14.4531H4.05C3.87098 14.4531 3.69929 14.382 3.5727 14.2554C3.44612 14.1288 3.375 13.9571 3.375 13.7781V9.50312C3.375 9.3241 3.44612 9.15241 3.5727 9.02583C3.69929 8.89924 3.87098 8.82812 4.05 8.82812Z" fill="white"/>
<defs>
<filter id="filter0_i_306_259" x="0" y="-0.171875" width="18" height="19.125" filterUnits="userSpaceOnUse" color-interpolation-filters="sRGB">
<feFlood flood-opacity="0" result="BackgroundImageFix"/>
<feBlend mode="normal" in="SourceGraphic" in2="BackgroundImageFix" result="shape"/>
<feColorMatrix in="SourceAlpha" type="matrix" values="0 0 0 0 0 0 0 0 0 0 0 0 0 0 0 0 0 0 127 0" result="hardAlpha"/>
<feOffset dy="-1.125"/>
<feGaussianBlur stdDeviation="1.125"/>
<feComposite in2="hardAlpha" operator="arithmetic" k2="-1" k3="1"/>
<feColorMatrix type="matrix" values="0 0 0 0 0 0 0 0 0 0.299356 0 0 0 0 0.681188 0 0 0 0.349568 0"/>
<feBlend mode="normal" in2="shape" result="effect1_innerShadow_306_259"/>
</filter>
<linearGradient id="paint0_linear_306_259" x1="9" y1="0.953125" x2="9" y2="18.9531" gradientUnits="userSpaceOnUse">
<stop stop-color="#18AFFF"/>
<stop offset="1" stop-color="#0062DF"/>
</linearGradient>
</defs>
</svg>
