<svg width="29" height="20" viewBox="0 0 29 20" fill="none" xmlns="http://www.w3.org/2000/svg">
<path d="M26.8039 3.77001L26.9567 4.20401C28.0137 7.24201 28.2354 8.85668 28.1805 13.3577L28.1654 14.2793C28.1105 17.3547 26.7724 19.2902 24.6397 19.7953C22.8792 20.213 20.8399 19.5107 19.8272 18.1993C18.6139 16.6255 17.194 15.831 15.0614 15.831H13.3149C11.2522 15.831 9.85687 16.573 8.66921 18.0442L8.45338 18.3172C7.41154 19.5527 5.44338 20.2002 3.73538 19.7953C1.60271 19.2902 0.265709 17.3547 0.209709 14.2782L0.195716 13.3752C0.140883 8.94651 0.352043 7.30851 1.35888 4.37434L1.57121 3.77001C2.74721 0.473011 6.88654 -0.587489 9.68421 0.370344L9.96421 0.470678L10.0307 0.494011L10.376 0.603678C10.628 0.680678 10.9022 0.757678 11.1927 0.830011C12.2147 1.08668 13.2332 1.23951 14.1654 1.24184L14.492 1.23718C15.4005 1.1953 16.3022 1.05884 17.1824 0.830011C17.474 0.757678 17.747 0.680678 17.999 0.603678L18.3444 0.492844L18.4097 0.470678L18.6909 0.370344C21.4885 -0.587489 25.6279 0.473011 26.8039 3.77001ZM18.986 2.12384L18.72 2.21134C18.3829 2.31984 18.0084 2.42718 17.607 2.52868C16.4579 2.81568 15.3064 2.98951 14.2144 2.99184L13.8317 2.98601C12.7973 2.94144 11.7704 2.78815 10.768 2.52868C10.4637 2.45262 10.1615 2.3686 9.86154 2.27668L9.46838 2.15068L9.08921 2.01651C7.09304 1.35151 4.00838 2.14484 3.21854 4.35801L3.07621 4.76401C2.06471 7.66784 1.88271 9.09818 1.94921 13.647L1.95854 14.2467C2.00171 16.5707 2.84055 17.7852 4.13788 18.0932C5.23571 18.3522 6.57387 17.8925 7.16187 17.1307C8.68904 15.1508 10.6012 14.0822 13.3149 14.0822H15.0614C17.7739 14.0822 19.686 15.1508 21.2132 17.1295C21.8012 17.8925 23.1382 18.3522 24.2372 18.0932C25.5357 17.7852 26.3734 16.5707 26.4165 14.2467L26.4259 13.6587C26.4935 9.08884 26.3092 7.66201 25.2907 4.73951L25.1565 4.35801C24.3667 2.14484 21.2832 1.35034 19.287 2.01651L18.986 2.12384Z" fill="#65676B"/>
<path d="M6.58081 5.625V10.2917C6.58081 10.5237 6.67299 10.7463 6.83709 10.9104C7.00118 11.0745 7.22375 11.1667 7.45581 11.1667C7.68787 11.1667 7.91043 11.0745 8.07453 10.9104C8.23862 10.7463 8.33081 10.5237 8.33081 10.2917V5.625C8.33081 5.39294 8.23862 5.17038 8.07453 5.00628C7.91043 4.84219 7.68787 4.75 7.45581 4.75C7.22375 4.75 7.00118 4.84219 6.83709 5.00628C6.67299 5.17038 6.58081 5.39294 6.58081 5.625Z" fill="#65676B"/>
<path d="M5.14575 8.83334H9.81242C10.0445 8.83334 10.267 8.74116 10.4311 8.57706C10.5952 8.41297 10.6874 8.19041 10.6874 7.95834C10.6874 7.72628 10.5952 7.50372 10.4311 7.33962C10.267 7.17553 10.0445 7.08334 9.81242 7.08334H5.14575C4.91369 7.08334 4.69113 7.17553 4.52704 7.33962C4.36294 7.50372 4.27075 7.72628 4.27075 7.95834C4.27075 8.19041 4.36294 8.41297 4.52704 8.57706C4.69113 8.74116 4.91369 8.83334 5.14575 8.83334Z" fill="#65676B"/>
<path fill-rule="evenodd" clip-rule="evenodd" d="M21.7709 5.33335C21.7709 5.64277 21.648 5.93952 21.4292 6.15831C21.2104 6.3771 20.9137 6.50002 20.6042 6.50002C20.2948 6.50002 19.9981 6.3771 19.7793 6.15831C19.5605 5.93952 19.4376 5.64277 19.4376 5.33335C19.4376 5.02393 19.5605 4.72719 19.7793 4.5084C19.9981 4.2896 20.2948 4.16669 20.6042 4.16669C20.9137 4.16669 21.2104 4.2896 21.4292 4.5084C21.648 4.72719 21.7709 5.02393 21.7709 5.33335ZM24.1042 7.66669C24.1042 7.97611 23.9813 8.27285 23.7625 8.49164C23.5437 8.71044 23.247 8.83335 22.9376 8.83335C22.6282 8.83335 22.3314 8.71044 22.1126 8.49164C21.8938 8.27285 21.7709 7.97611 21.7709 7.66669C21.7709 7.35727 21.8938 7.06052 22.1126 6.84173C22.3314 6.62294 22.6282 6.50002 22.9376 6.50002C23.247 6.50002 23.5437 6.62294 23.7625 6.84173C23.9813 7.06052 24.1042 7.35727 24.1042 7.66669ZM21.7709 10C21.7709 10.3094 21.648 10.6062 21.4292 10.825C21.2104 11.0438 20.9137 11.1667 20.6042 11.1667C20.2948 11.1667 19.9981 11.0438 19.7793 10.825C19.5605 10.6062 19.4376 10.3094 19.4376 10C19.4376 9.6906 19.5605 9.39385 19.7793 9.17506C19.9981 8.95627 20.2948 8.83335 20.6042 8.83335C20.9137 8.83335 21.2104 8.95627 21.4292 9.17506C21.648 9.39385 21.7709 9.6906 21.7709 10ZM19.4376 7.66669C19.4376 7.97611 19.3147 8.27285 19.0959 8.49164C18.8771 8.71044 18.5803 8.83335 18.2709 8.83335C17.9615 8.83335 17.6647 8.71044 17.446 8.49164C17.2272 8.27285 17.1042 7.97611 17.1042 7.66669C17.1042 7.35727 17.2272 7.06052 17.446 6.84173C17.6647 6.62294 17.9615 6.50002 18.2709 6.50002C18.5803 6.50002 18.8771 6.62294 19.0959 6.84173C19.3147 7.06052 19.4376 7.35727 19.4376 7.66669Z" fill="#65676B"/>
</svg>
