<svg width="41" height="41" viewBox="0 0 41 41" fill="none" xmlns="http://www.w3.org/2000/svg">
<path d="M16.7721 39.8979C7.32769 38.2312 0.105469 30.009 0.105469 20.1201C0.105469 9.12012 9.10547 0.120117 20.1055 0.120117C31.1055 0.120117 40.1055 9.12012 40.1055 20.1201C40.1055 30.009 32.8832 38.2312 23.4388 39.8979L22.3277 39.009H17.8832L16.7721 39.8979Z" fill="url(#paint0_linear_442_163)"/>
<path d="M27.8846 25.6752L28.7734 20.1197H23.4401V16.2308C23.4401 14.6752 23.9957 13.453 26.4401 13.453H28.9957V8.34191C27.5512 8.11968 25.9957 7.89746 24.5512 7.89746C19.9957 7.89746 16.7734 10.6752 16.7734 15.6752V20.1197H11.7734V25.6752H16.7734V39.7864C17.8845 40.0086 18.9957 40.1197 20.1068 40.1197C21.2179 40.1197 22.329 40.0086 23.4401 39.7864V25.6752H27.8846Z" fill="white"/>
<defs>
<linearGradient id="paint0_linear_442_163" x1="20.1055" y1="38.7357" x2="20.1055" y2="0.120117" gradientUnits="userSpaceOnUse">
<stop stop-color="#0062E0"/>
<stop offset="1" stop-color="#19AFFF"/>
</linearGradient>
</defs>
</svg>
