<svg width="25" height="23" viewBox="0 0 25 23" fill="none" xmlns="http://www.w3.org/2000/svg">
<path d="M9.47266 21.3643V15.5643C9.47266 15.0383 9.89666 14.6143 10.4227 14.6143H14.5127C15.0387 14.6143 15.4627 15.0383 15.4627 15.5643V21.3643H20.4427C20.8727 21.3643 21.2227 21.0163 21.2227 20.5843V12.3203C21.0987 12.2473 20.9807 12.1613 20.8727 12.0643L20.4627 11.6943C20.2727 11.5243 20.0127 11.5243 19.8227 11.6943L19.6527 11.8443C19.1027 12.3343 18.4027 12.6043 17.6827 12.6043H17.4527C16.7427 12.6043 16.0427 12.3443 15.4927 11.8543L15.3027 11.6843C15.1127 11.5143 14.8527 11.5143 14.6627 11.6843L14.4727 11.8543C13.9227 12.3443 13.2227 12.6143 12.5127 12.6143H12.3727C11.6627 12.6143 10.9727 12.3543 10.4327 11.8743L10.2127 11.6843C10.0227 11.5143 9.76266 11.5143 9.57266 11.6843L9.39266 11.8443C8.84266 12.3343 8.14266 12.6043 7.42266 12.6043H7.24266C6.52266 12.6043 5.83266 12.3443 5.28266 11.8543L5.08266 11.6843C4.90266 11.5143 4.64266 11.5143 4.45266 11.6843L3.97266 12.1143C3.89666 12.1813 3.81666 12.2433 3.73266 12.2973V20.5843C3.73266 21.0143 4.08066 21.3643 4.51266 21.3643H9.47266ZM22.7227 12.5693V20.5843C22.7227 21.8463 21.6997 22.8643 20.4427 22.8643H4.51266C3.25066 22.8643 2.23266 21.8413 2.23266 20.5843V12.5953C1.23966 12.4563 0.472656 11.5573 0.472656 10.4643V8.11426C0.472656 7.83426 0.692656 7.61426 0.972656 7.61426H23.9827C24.2627 7.61426 24.4827 7.83426 24.4827 8.11426V10.2943C24.4827 11.4183 23.7267 12.3573 22.7227 12.5693ZM23.4327 6.61426H1.50266C1.15266 6.61426 0.912656 6.25426 1.04266 5.92426L2.86266 1.43426C3.05266 0.944258 3.51266 0.614258 4.03266 0.614258H20.9027C21.4227 0.614258 21.8827 0.944258 22.0727 1.44426L23.8927 5.92426C24.0327 6.25426 23.7827 6.61426 23.4327 6.61426Z" fill="#1B74E4"/>
</svg>
