
<svg width="26" height="21" viewBox="0 0 26 21" fill="none" xmlns="http://www.w3.org/2000/svg">
<path d="M8.90625 1.5C6.63425 1.5 6.15625 3.268 6.15625 4.75C6.15625 6.542 7.38925 8 8.90625 8C10.4232 8 11.6562 6.542 11.6562 4.75C11.6562 3.268 11.1783 1.5 8.90625 1.5ZM8.90625 9.5C6.56225 9.5 4.65625 7.369 4.65625 4.75C4.65625 1.776 6.24525 0 8.90625 0C11.5673 0 13.1562 1.776 13.1562 4.75C13.1562 7.369 11.2503 9.5 8.90625 9.5ZM18.4062 3.5C16.9963 3.5 16.2812 4.341 16.2812 6C16.2812 7.378 17.2342 8.5 18.4062 8.5C19.5783 8.5 20.5312 7.378 20.5312 6C20.5312 4.341 19.8162 3.5 18.4062 3.5ZM18.4062 10C16.4073 10 14.7812 8.206 14.7812 6C14.7812 3.533 16.1702 2 18.4062 2C20.6423 2 22.0312 3.533 22.0312 6C22.0312 8.206 20.4052 10 18.4062 10ZM23.0282 18C23.2632 17.9976 23.4875 17.9022 23.6521 17.7346C23.8167 17.567 23.9081 17.3409 23.9062 17.106C23.9062 14.566 21.8632 12.5 19.3512 12.5H17.4912C16.8482 12.5 16.2262 12.648 15.6472 12.913C16.7754 14.0745 17.4067 15.6298 17.4072 17.249V18H23.0282ZM15.9062 18.562V17.249C15.9047 15.99 15.4038 14.783 14.5135 13.8927C13.6233 13.0024 12.4163 12.5016 11.1573 12.5H6.65625C5.39705 12.5013 4.18979 13.0021 3.29931 13.8924C2.40882 14.7826 1.90784 15.9898 1.90625 17.249V18.562C1.90625 19.08 2.32725 19.5 2.84325 19.5H14.9683C15.4853 19.5 15.9062 19.08 15.9062 18.562ZM19.3512 11C22.6912 11 25.4062 13.739 25.4062 17.106C25.4078 17.7386 25.1583 18.3461 24.7125 18.7949C24.2666 19.2438 23.6609 19.4974 23.0282 19.5H17.2183C17.0329 19.944 16.7204 20.3233 16.3201 20.5902C15.9197 20.8571 15.4494 20.9997 14.9683 21H2.84325C2.19699 20.9992 1.57744 20.7421 1.12055 20.285C0.663672 19.8279 0.406779 19.2083 0.40625 18.562V17.249C0.408103 15.5921 1.06721 14.0035 2.23894 12.832C3.41067 11.6604 4.99931 11.0016 6.65625 11H11.1573C12.2923 11.0004 13.4054 11.3124 14.3752 11.902C15.3096 11.3178 16.3883 11.0055 17.4902 11H19.3512Z" fill="#65676B"/>
</svg>
