<svg width="16" height="5" viewBox="0 0 16 5" fill="none" xmlns="http://www.w3.org/2000/svg">
<path fill-rule="evenodd" clip-rule="evenodd" d="M10 2.98438C10 3.51481 9.78929 4.02352 9.41422 4.39859C9.03914 4.77366 8.53043 4.98438 8 4.98438C7.46957 4.98438 6.96086 4.77366 6.58578 4.39859C6.21071 4.02352 6 3.51481 6 2.98438C6 2.45394 6.21071 1.94523 6.58578 1.57016C6.96086 1.19509 7.46957 0.984375 8 0.984375C8.53043 0.984375 9.03914 1.19509 9.41422 1.57016C9.78929 1.94523 10 2.45394 10 2.98438ZM16 2.98438C16 3.51481 15.7893 4.02352 15.4142 4.39859C15.0391 4.77366 14.5304 4.98438 14 4.98438C13.4696 4.98438 12.9609 4.77366 12.5858 4.39859C12.2107 4.02352 12 3.51481 12 2.98438C12 2.45394 12.2107 1.94523 12.5858 1.57016C12.9609 1.19509 13.4696 0.984375 14 0.984375C14.5304 0.984375 15.0391 1.19509 15.4142 1.57016C15.7893 1.94523 16 2.45394 16 2.98438ZM4 2.98438C4 3.51481 3.78929 4.02352 3.41422 4.39859C3.03914 4.77366 2.53043 4.98438 2 4.98438C1.46957 4.98438 0.960858 4.77366 0.585785 4.39859C0.210712 4.02352 0 3.51481 0 2.98438C0 2.45394 0.210712 1.94523 0.585785 1.57016C0.960858 1.19509 1.46957 0.984375 2 0.984375C2.53043 0.984375 3.03914 1.19509 3.41422 1.57016C3.78929 1.94523 4 2.45394 4 2.98438Z" fill="#65676B"/>
</svg>
