<svg width="25" height="24" viewBox="0 0 25 24" fill="none" xmlns="http://www.w3.org/2000/svg">
<path d="M16.0938 21.75H20.3438C20.7578 21.75 21.0938 21.414 21.0938 21V12H21.1248C20.9578 11.917 20.7998 11.815 20.6548 11.694L20.2537 11.359C20.1607 11.283 20.0268 11.283 19.9338 11.36L19.7698 11.497C19.1848 11.983 18.4487 12.25 17.6887 12.25H17.4627C16.7077 12.25 15.9757 11.987 15.3937 11.506L15.2097 11.354C15.1167 11.278 14.9838 11.278 14.8918 11.354L14.7068 11.507C14.1238 11.987 13.3917 12.25 12.6377 12.25H12.5007C11.7557 12.25 11.0328 11.994 10.4548 11.525L10.2388 11.35C10.1458 11.275 10.0128 11.276 9.92175 11.352L9.74875 11.497C9.16375 11.984 8.42775 12.25 7.66775 12.25H7.48975C6.73675 12.25 6.00775 11.989 5.42575 11.511L5.23175 11.351C5.13875 11.275 5.00675 11.275 4.91375 11.351L4.44275 11.739C4.31975 11.84 4.18575 11.928 4.04575 12H4.09375V21C4.09375 21.414 4.42975 21.75 4.84375 21.75H9.09375V15.5C9.09375 14.81 9.65375 14.25 10.3438 14.25H14.8438C15.5337 14.25 16.0938 14.81 16.0938 15.5V21.75ZM2.26675 6.75H22.9207C22.8937 6.66 22.8648 6.571 22.8318 6.483L21.6807 3.355C21.4167 2.688 20.7718 2.25 20.0548 2.25H5.13375C4.41575 2.25 3.77075 2.688 3.51275 3.338L2.35575 6.483C2.32275 6.571 2.29375 6.66 2.26675 6.75ZM23.0938 8.25H2.09375V10C2.09375 10.414 2.42975 10.75 2.84375 10.75H3.01475C3.18875 10.75 3.35675 10.69 3.49075 10.58L3.96175 10.193C4.60675 9.662 5.53875 9.662 6.18375 10.193L6.37775 10.352C6.69075 10.609 7.08375 10.75 7.48975 10.75H7.66775C8.07675 10.75 8.47375 10.607 8.78775 10.345L8.96175 10.2C9.60375 9.665 10.5347 9.659 11.1827 10.185L11.3988 10.359C11.7108 10.612 12.0997 10.75 12.5007 10.75H12.6377C13.0437 10.75 13.4377 10.608 13.7517 10.35L13.9368 10.197C14.5828 9.663 15.5177 9.663 16.1647 10.197L16.3487 10.35C16.6617 10.608 17.0557 10.75 17.4627 10.75H17.6887C18.0977 10.75 18.4947 10.606 18.8097 10.344L18.9737 10.208C19.6217 9.666 20.5658 9.666 21.2138 10.207L21.6157 10.542C21.7767 10.676 21.9807 10.75 22.1917 10.75C22.6907 10.75 23.0938 10.347 23.0938 9.85V8.25ZM22.5938 12.217V21C22.5938 22.243 21.5868 23.25 20.3438 23.25H4.84375C3.60075 23.25 2.59375 22.243 2.59375 21V12.236C1.46875 12.112 0.59375 11.158 0.59375 10V7.951C0.59375 7.272 0.71375 6.6 0.94775 5.964L2.11175 2.802C2.60375 1.563 3.80075 0.75 5.13375 0.75H20.0548C21.3868 0.75 22.5838 1.563 23.0818 2.819L24.2397 5.964C24.4737 6.6 24.5938 7.272 24.5938 7.951V9.85C24.5938 11.039 23.7287 12.026 22.5938 12.217ZM14.5938 21.75V15.75H10.5938V21.75H14.5938Z" fill="#65676B"/>
</svg>
