<svg width="26" height="22" viewBox="0 0 26 22" fill="none" xmlns="http://www.w3.org/2000/svg">
<path d="M18.506 19.9983C18.583 19.5433 18.666 18.8173 18.666 17.8183C18.666 15.8203 17.826 13.8373 16.546 12.4083C16.254 12.0823 16.469 11.5703 16.906 11.5703H19.111C22.45 11.5703 25.166 14.4803 25.166 18.0593C25.166 19.4443 24.1 20.5693 22.788 20.5693H19.002C18.9301 20.57 18.859 20.555 18.7935 20.5255C18.7279 20.496 18.6696 20.4525 18.6225 20.3982C18.5754 20.3439 18.5407 20.28 18.5208 20.211C18.5008 20.1419 18.4951 20.0694 18.506 19.9983ZM18.166 10.5703C16.236 10.5703 14.666 8.77631 14.666 6.57031C14.666 4.10331 16.007 2.57031 18.166 2.57031C20.325 2.57031 21.666 4.10331 21.666 6.57031C21.666 8.77631 20.096 10.5703 18.166 10.5703ZM8.66602 9.57031C6.46002 9.57031 4.66602 7.55131 4.66602 5.07031C4.66602 2.25231 6.16102 0.570312 8.66602 0.570312C11.171 0.570312 12.666 2.25231 12.666 5.07031C12.666 7.55131 10.872 9.57031 8.66602 9.57031ZM10.917 11.5703C12.5738 11.5722 14.1622 12.2311 15.3337 13.4026C16.5052 14.5742 17.1642 16.1625 17.166 17.8193V19.1323C17.1655 19.7786 16.9086 20.3982 16.4517 20.8553C15.9948 21.3124 15.3753 21.5695 14.729 21.5703H2.60402C1.95758 21.5698 1.33777 21.3128 0.880674 20.8557C0.423575 20.3986 0.166545 19.7787 0.166016 19.1323V17.8193C0.167868 16.1625 0.826838 14.5742 1.99835 13.4026C3.16987 12.2311 4.75825 11.5722 6.41502 11.5703H10.917Z" fill="#1B74E4"/>
</svg>
