<svg width="25" height="24" viewBox="0 0 25 24" fill="none" xmlns="http://www.w3.org/2000/svg">
<path d="M16.0714 21.5498H19.8214C19.9574 21.5498 20.0714 21.4348 20.0714 21.2998V11.5498C20.0714 10.9978 20.5204 10.5498 21.0714 10.5498H22.9014L12.5884 1.6168L2.2434 10.5498H4.0714C4.6234 10.5498 5.0714 10.9978 5.0714 11.5498V21.2998C5.0714 21.4348 5.1864 21.5498 5.3214 21.5498H9.07141V15.2998C9.07141 14.6108 9.63241 14.0498 10.3214 14.0498H14.8214C15.5104 14.0498 16.0714 14.6108 16.0714 15.2998V21.5498ZM19.8214 23.0498H15.5714C15.0194 23.0498 14.5714 22.6018 14.5714 22.0498V15.8978C14.5714 15.7058 14.4154 15.5498 14.2234 15.5498H10.9194C10.7274 15.5498 10.5714 15.7058 10.5714 15.8978V22.0498C10.5714 22.6018 10.1234 23.0498 9.57141 23.0498H5.3214C4.3554 23.0498 3.5714 22.2658 3.5714 21.2998V12.0498H1.6404C1.1384 12.0498 0.650405 11.7858 0.439405 11.3298C0.201405 10.8158 0.328405 10.2288 0.746405 9.8608L11.5724 0.482797C11.8194 0.245797 12.1794 0.0977969 12.5604 0.0917969C12.9634 0.0977969 13.3244 0.245797 13.5984 0.507797L24.3924 9.8568C24.3944 9.8588 24.3964 9.8608 24.3964 9.8608C24.8154 10.2288 24.9424 10.8158 24.7044 11.3298C24.4924 11.7858 24.0054 12.0498 23.5024 12.0498H21.5714V21.2998C21.5714 22.2658 20.7884 23.0498 19.8214 23.0498Z" fill="#65676B"/>
</svg>
