<svg width="24" height="23" viewBox="0 0 24 23" fill="none" xmlns="http://www.w3.org/2000/svg">
<path d="M7.20703 22.9258C6.79303 22.9258 6.45703 22.5898 6.45703 22.1758C6.45703 21.7618 6.79303 21.4258 7.20703 21.4258H17.707C18.121 21.4258 18.457 21.7618 18.457 22.1758C18.457 22.5898 18.121 22.9258 17.707 22.9258H7.20703ZM15.621 10.5218L10.512 13.5988C10.048 13.8778 9.45703 13.5448 9.45703 13.0028V6.84778C9.45703 6.30678 10.048 5.97278 10.512 6.25178L15.621 9.32978C16.069 9.59978 16.069 10.2508 15.621 10.5218ZM20.207 0.425781H4.70703C2.63903 0.425781 0.957031 2.10778 0.957031 4.17578V15.6758C0.957031 17.7438 2.63903 19.4258 4.70703 19.4258H20.207C22.275 19.4258 23.957 17.7438 23.957 15.6758V4.17578C23.957 2.10778 22.275 0.425781 20.207 0.425781Z" fill="#1B74E4"/>
</svg>
